<?xml version="1.0" standalone="no"?>
<!DOCTYPE svg PUBLIC "-//W3C//DTD SVG 1.1//EN" "http://www.w3.org/Graphics/SVG/1.1/DTD/svg11.dtd" >
<svg xmlns="http://www.w3.org/2000/svg" xmlns:xlink="http://www.w3.org/1999/xlink" version="1.1">
<metadata>
Created by FontForge 20170731 at Tue Sep 22 17:44:01 17841170
 By Aleksey,,,
(c) Schmopyright/Hilde Skjoelberg 1996. From the Chankstore, http://www.chank.com
</metadata>
<defs>
<font id="HildeSharpie" horiz-adv-x="496" >
  <font-face 
    font-family="Hilde"
    font-weight="400"
    font-stretch="normal"
    units-per-em="1000"
    panose-1="0 0 4 0 0 0 0 0 0 0"
    ascent="800"
    descent="-200"
    x-height="375"
    cap-height="645"
    bbox="-166 -258 1278 956"
    underline-thickness="20"
    underline-position="-163"
    unicode-range="U+0020-F002"
  />
<missing-glyph horiz-adv-x="500" 
d="M63 0v800h375v-800h-375zM125 63h250v675h-250v-675z" />
    <glyph glyph-name=".notdef" horiz-adv-x="500" 
d="M63 0v800h375v-800h-375zM125 63h250v675h-250v-675z" />
    <glyph glyph-name=".null" horiz-adv-x="0" 
 />
    <glyph glyph-name="nonmarkingreturn" horiz-adv-x="316" 
 />
    <glyph glyph-name="space" unicode=" " horiz-adv-x="316" 
 />
    <glyph glyph-name="exclam" unicode="!" horiz-adv-x="215" 
d="M161 321q-4 -9 -18 -24q-15 -2 -22.5 11t-14.5 25q7 55 7 116q0 51 -6 143q-6 98 -7 146q6 19 17 19q10 0 19.5 -12t11.5 -25zM185 43q7 -56 -42 -79q-38 -17 -79 0q-34 32 -48 66q-4 94 54 140q8 3 16 3q15 0 39 -13t36 -14q10 -4 11 -14v0q0 -8 0.5 -16.5t6.5 -12.5
q-3 -3 -11 -20q-5 -13 -14 -13q-5 0 -11 3q-15 5 -25 24q-12 25 -18 31q-30 -19 -36 -67q7 -30 10 -36q8 -19 26 -24q15 2 41.5 21t43.5 21z" />
    <glyph glyph-name="quotedbl" unicode="&#x22;" horiz-adv-x="210" 
d="M183 596q-4 -12 -24 -30q-34 -5 -36 18q5 22 6 51q1 18 0 54.5t0 52.5q6 12 16 12q18 0 32 -31zM74 560q-30 0 -36 12q-13 34 -13 74t13 77q4 1 8 1q6 0 28 -19q1 -11 8 -47q4 -27 4 -43q0 -29 -12 -55z" />
    <glyph glyph-name="numbersign" unicode="#" horiz-adv-x="599" 
d="M625 515q-5 -11 -15 -13v0h-19t-15 -6q-22 -11 -86 -28q-55 -15 -84 -32q6 -18 6 -42q0 -7 -1 -20v-18q0 -44 26 -65q25 6 54 6q30 0 55 -6q-17 -23 -64 -27.5t-63 -20.5l11 -194q-6 -7 -13 -13.5t-15 -6.5q-3 0 -7 2q-6 22 -6 53v0q-1 32 -1 65q0 40 -6 69q3 20 -11 30
q-13 -9 -51 -14q-33 -5 -46 -22q-1 -9 0 -103q1 -61 -13 -96q-5 -2 -9 -2q-8 0 -21 26q6 29 6 77v79q-5 12 -15 12q-4 0 -13.5 -3t-13.5 -2q-67 -29 -133 -91q-5 1 -18 0t-20 0q-10 2 -17 7v24q21 36 81 60q49 19 98 39q47 25 47 67q0 25 -14 58q-30 0 -78.5 -31.5
t-72.5 -31.5q-15 0 -30 8q4 22 30 42q2 2 48 30q7 4 50 23q31 14 47 32q-1 16 -10 49t-9 51t6 33q28 -2 35 -33q4 -28 9 -57t28 -29q8 0 20 4q1 0 36 8q21 5 30 22q3 30 -11 75q-16 50 -16 70q0 13 3 24h23q14 0 19 -11q9 -20 15 -75q5 -49 22 -71q63 18 193 43
q6 -6 12.5 -12t6.5 -12zM371 296q-7 19 -6.5 61.5t-6.5 60.5q-17 -3 -90 -30l11 -110q13 10 46.5 11.5t45.5 6.5z" />
    <glyph glyph-name="dollar" unicode="$" horiz-adv-x="403" 
d="M372 89q-18 -41 -57 -73t-82 -35q-9 -12 -9 -30v0q0 2 13 -66q8 -37 -17 -50q-18 24 -26 71q-10 60 -16 75q-58 3 -107 53q-45 45 -62 104q-5 57 18 103q7 -6 7 -23q0 -16 -7 -26q29 -126 127 -169h24l24 290q-50 32 -100 63q-58 41 -62 95q18 79 162 151q1 14 -5.5 43
t-6.5 42q0 27 19 42q23 -5 28 -37q4 -27 7 -53q-6 -5 -6 -11q0 -4 6 -13t7 -13q33 -13 66 -27q39 -16 43 -52q-16 -3 -47 17t-50 20q-11 -4 -11 -11v0q0 2 4 -13q2 -8 -5 -13q7 -39 7 -85q0 -45 -7 -84q6 -3 6 -18l-6 -6q82 -84 87 -90q46 -57 46 -111q0 -29 -12 -60z
M209 556l-13 17q-108 -39 -108 -114q48 -58 114 -79q7 17 7 20q0 6 -7 11q10 24 3.5 72t3.5 73zM323 174q-3 28 -25.5 55.5t-46.5 35.5q1 -41 -12 -118t-12 -117h12q42 11 62 58q10 23 22 86z" />
    <glyph glyph-name="percent" unicode="%" horiz-adv-x="509" 
d="M485 362q-10 -10 -43 -2.5t-47 -9.5q-56 -65 -56 -116q0 -18 8 -35q6 -3 12 -3q10 0 22 13q18 19 19 21q15 19 11 55q-5 41 2 59q27 -9 33 -48q5 -33 9 -66q4 -28 -14.5 -51.5t-45.5 -33.5q-10 -3 -21 -3q-49 0 -82 45q-4 19 -4 40q0 105 88 165q17 12 38 12q47 0 71 -42
zM238 526q0 -71 -55 -97q-18 -12 -42 -12q-35 0 -72 23.5t-37 78.5q0 21 6 55q15 36 44 36q21 0 53 -19l48 -30l6 -17q-8 2 -40 18q-25 13 -40 13q-12 0 -23 -7q-8 -44 -8 -54q0 -30 20 -43q14 -7 27 -7q25 0 59 33t54 29zM419 659q-53 -90 -119 -225q-55 -114 -111 -229
q-26 -53 -79 -157q-31 -3 -48 18q5 26 28 59q35 50 38 56q34 63 118 247q70 155 125 243q7 11 20 11q22 0 28 -23z" />
    <glyph glyph-name="ampersand" unicode="&#x26;" horiz-adv-x="340" 
d="M310 196q4 -10 4 -21q0 -39 -57 -98q-47 -38 -79 -37q-4 -35 -9 -70q-2 -25 2 -88q-12 -16 -31 -16q-18 0 -29 14q2 71 6 92q1 2 26 78q-53 21 -83 71q-28 44 -32 100q22 91 100 125q-15 34 -46 49l-30 35q-18 22 -18 37t14 28q17 17 54 44q33 3 64 0q2 40 4 81
q1 26 -7 91q11 18 32 18q16 0 27 -12q2 -44 2 -62q0 -26 -5 -49q-10 -36 -19 -72q45 -10 83 -33q3 -8 -2.5 -16t-11.5 -15q-5 -1 -9 -1q-11 0 -27 6.5t-23 7.5q-6 -1 -12 -1v0q-4 0 -61 16q-34 10 -55 -15q11 -6 16.5 -17l10.5 -21q21 -27 80 -67q54 -37 75 -69
q-12 -32 -41 -32v0q-9 0 -57 12q-37 10 -57 0q-1 -1 -23 -27q-14 -18 -14 -33q0 -7 3 -14q25 -76 94 -118q18 -8 33 -8q31 0 60 43q36 56 48 64z" />
    <glyph glyph-name="quotesingle" unicode="'" horiz-adv-x="149" 
d="M108 654q2 -55 2 -76q0 -33 -7 -63q-11 -49 -23 -99q-2 -1 -11.5 -6t-14.5 -5t-10 3q1 49 4 89q3 37 3 48q0 29 -9 101q12 22 36 22q18 0 30 -14z" />
    <glyph glyph-name="parenleft" unicode="(" horiz-adv-x="230" 
d="M210 532q4 -10 -7 -20q-17 -15 -17 -16q-73 -14 -105 -141q-1 -30 -1 -54q0 -134 75 -198q-7 -2 -6 -11q0 -16 1 -13q0 -1 23 -14q15 -9 13 -23q-6 -6 -14 -6q-6 0 -17.5 6t-17.5 6q-104 100 -104 265q0 76 24 146q62 106 111 106q25 0 42 -33z" />
    <glyph glyph-name="parenright" unicode=")" horiz-adv-x="244" 
d="M198 347q20 -40 20 -86q0 -91 -75 -196q-23 -23 -34 -32q-19 -15 -40 -17q-2 3 -10.5 11t-8.5 14q0 3 1 6q60 41 93 102q34 65 29 137q-5 89 -122 208l6 26q47 -18 85 -73q21 -29 56 -100z" />
    <glyph glyph-name="asterisk" unicode="*" horiz-adv-x="472" 
d="M440 539q0 6 1 -22q0 -14 -6 -20q-62 6 -142 -7q29 -30 58 -61q37 -39 41 -63q-8 -7 -16 -15q-11 -8 -20 -7q-36 55 -103 113q-10 -91 -28 -175q-2 -1 -11.5 -6.5t-14.5 -5.5t-10 3q1 43 9 178q-70 -44 -141 -80q-9 4 -18.5 8.5t-10.5 14.5q33 25 81 60q-39 -6 -73 -6
q-1 7 -10 22t-9 22q0 9 12 17q21 -5 43 -5q35 0 102 18q-70 57 -107 101q5 4 14 27q6 18 19 18q4 0 10 -2q23 -47 93 -98q1 75 -7 134q13 22 37 22q17 0 30 -15q3 -69 -1 -143q61 48 103 92q22 3 37 -11t11 -36q-34 -30 -72 -60q14 2 29 2q45 0 70 -14z" />
    <glyph glyph-name="plus" unicode="+" horiz-adv-x="472" 
d="M435 340q1 5 1 -23q0 -13 -6 -20q-22 3 -44 3q-55 0 -134 -16q-11 -78 -33 -151q-33 -9 -28 -9q-5 0 -9 3q0 29 9 144q-100 -22 -160 -23q0 8 -9 22.5t-9 21.5q0 10 12 17q20 -5 42 -5q28 0 128 25q3 73 -6 127q13 17 39 17q18 0 31 -11q3 -59 -1 -122q15 1 30 0
q32 13 77 13q46 0 70 -13z" />
    <glyph glyph-name="comma" unicode="," horiz-adv-x="158" 
d="M120 131q-1 -15 8 -50q10 -38 10 -56q0 -33 -24 -54q-2 -27 -62 -73h-23q-13 0 -20 6q88 61 87 136q-7 12 -24 12v0q-29 0 -26 -1q-14 2 -19 18q-2 8 -2 15q0 28 46 60q11 6 25 6q22 0 24 -19z" />
    <glyph glyph-name="hyphen" unicode="-" horiz-adv-x="406" 
d="M374 228q-4 -1 -166 -18q-99 -10 -160 -32q-24 13 -24 45q0 13 6 23q104 25 219 25q57 0 112 -7q5 -8 10.5 -17.5t2.5 -18.5z" />
    <glyph glyph-name="period" unicode="." horiz-adv-x="149" 
d="M114 45q-20 -8 -41 -8q-26 0 -39 13q-2 9 -2 18q0 24 14.5 43.5t33.5 19.5q8 0 19 -6t15 -7q-8 -8 -8 -16v0q0 -4 12 -28q9 -17 -4 -29z" />
    <glyph glyph-name="slash" unicode="/" horiz-adv-x="337" 
d="M321 596q-1 -17 -18 -37t-17 -32q0 -7 4 -16q-1 -15 -20 -32t-19 -28q0 -4 2 -8l6 6q-26 -64 -53 -127q-32 -76 -63 -124q2 -7 2 -13q0 -16 -21 -35.5t-21 -35.5q0 -7 3 -14q-22 -9 -34 -47.5t-28 -38.5q-11 0 -30 13q17 39 103 212q63 130 93 217q2 3 38 95q23 57 54 76
z" />
    <glyph glyph-name="zero" unicode="0" horiz-adv-x="475" 
d="M439 360q2 -110 -24 -158q-13 -11 -19.5 -43.5t-23.5 -43.5v-18q-37 -50 -75 -100q-45 -52 -103 -59q-30 12 -61 25q-34 17 -43 48q-27 25 -40 70q-11 38 -22 77q7 9 7 19q0 9 -6 25t-7 24q3 31 1 116q-3 71 7 109q14 56 60 93q71 56 120 56q19 0 39 -7q36 -2 75 -46
q50 -57 60 -64q1 -2 31 -58q20 -37 24 -65zM366 428q-5 -16 -9 -32q-6 -19 -16 -30q-30 -1 -49 13q-2 17 5 49q8 36 8 51q0 34 -26 53q-6 2 -31 16q-19 11 -34 11q-7 0 -14 -2q-77 -22 -104 -105q-8 -23 -25 -153q10 -82 19 -164q15 -94 73 -136q12 -4 22 -4q22 0 47 24
q32 30 42 35q53 85 75 134q37 81 37 147q0 49 -20 93z" />
    <glyph glyph-name="one" unicode="1" horiz-adv-x="274" 
d="M253 618q-3 -60 -18 -246q-12 -143 -12 -238q0 -41 2 -80q-7 -4 -7 -13v-15q-56 -6 -63 28q15 30 15 88q0 9 -1 27v26q0 41 7 63l-7 7l15 226l-23 13q-17 -14 -65 -81q-37 -52 -83 -67l-13 15q129 130 204 268q6 2 11 2q8 0 19 -11.5t19 -11.5z" />
    <glyph glyph-name="two" unicode="2" horiz-adv-x="382" 
d="M354 520q7 -80 -52 -158q-15 -20 -124 -131q-77 -78 -98 -141q8 -20 41 -30q28 -6 57 -12q29 -1 81 14t82 14q8 -10 8 -17q0 -9 -14 -17q-21 -14 -22 -15q-69 -22 -136 -22q-106 0 -160 57q5 76 70 153q60 61 119 123q9 17 38 51t39 53q18 32 15 64q-18 18 -55 18
q-42 0 -78 -18q-33 -27 -79 -35q-2 8 -15.5 14t-13.5 14q0 3 1 7q88 65 179 65q74 0 117 -51z" />
    <glyph glyph-name="three" unicode="3" horiz-adv-x="340" 
d="M320 215q-4 -66 -35 -117q-34 -58 -93 -80q-15 -9 -31 -9q-33 0 -81 43q-60 66 -60 110q0 13 4 24q13 -9 51 -72q30 -49 62 -49q16 0 35 9q72 47 99 133q2 9 2 16q0 30 -18 52t-46 22q-16 0 -48 -9.5t-46 -9.5q-30 0 -42 36q21 36 78 78q62 45 84 76q5 11 11 23.5
t17 19.5q-16 21 -37 21q-13 0 -41 -11.5t-44 -11.5q-6 0 -12 2q-8 -1 -24.5 -8.5t-27.5 -7.5q-5 0 -11 1q-1 2 -9 14q-6 8 -6 15q0 51 159 51q16 0 33 -2q14 -9 56 -50q15 -15 15 -31q0 -18 -20 -42l-31 -39q-33 -18 -49 -57q83 -38 106 -140z" />
    <glyph glyph-name="four" unicode="4" horiz-adv-x="377" 
d="M360 277q-3 -19 -30 -25t-33 -25q-1 -32 -8 -90q-7 -54 -7 -84q0 -36 8 -72q-44 8 -49 36q-8 25 -8 56v0q0 17 6 76q6 48 2 78h-87q-52 0 -90 8q-20 -1 -35 16l-21 33q9 69 84 127l134 84q-1 -12 14 -17.5t29 -10.5l6 225l50 -49l-15 -331q18 -8 50 -35zM261 439
q-85 -50 -101 -61q-57 -38 -89 -80q20 -7 46 -7v0q14 0 61 6q38 4 63 1l13 14q-2 10 -2 21v0q0 14 7 55q6 32 2 51z" />
    <glyph glyph-name="five" unicode="5" horiz-adv-x="446" 
d="M429 504q-24 -22 -75 -22v0q-77 0 -94 -6l-148 -29q-11 -3 -13 -20t-8 -21q8 -4 17 -4q14 0 41.5 15t41 17.5t27.5 2.5q81 0 113 -67t37 -77q19 -48 19 -85q0 -38 -21 -70q2 -61 -42 -108.5t-110 -47.5q-23 0 -38 8q-51 47 -51 148q0 20 2 42q4 15 9.5 31t18.5 26
q14 -18 14 -48q0 -20 -7 -38q1 -3 1 -9q0 -5 -1.5 -18.5t-1.5 -21.5q0 -31 23 -41q-2 -5 -2 -8q0 -7 10.5 -13t12.5 -7q63 28 93 96q25 58 19 129q-5 65 -77 127q-27 1 -78 -31.5t-77 -32.5q-30 0 -56 29q-11 93 14 140q61 3 176 25t177 24q19 -10 22 -12q10 -9 12 -23z" />
    <glyph glyph-name="six" unicode="6" horiz-adv-x="419" 
d="M385 194q10 -13 10 -29q0 -18 -17 -46q-14 -23 -29 -45q-99 -85 -178 -85q-75 0 -131 85q-22 54 -22 113q0 131 106 282q35 49 109 49q18 0 82 -7q16 -10 31 -21q19 -12 25 -28v-20q0 -11 -7 -16q-25 38 -105 64q-93 -24 -143 -124q-42 -84 -42 -186q0 -43 22 -84
q26 20 21 49q34 62 148 99q89 -12 120 -50zM329 166q-4 17 -23 25l-34 10q-89 -14 -140 -140l13 -15q106 -7 184 120z" />
    <glyph glyph-name="seven" unicode="7" horiz-adv-x="451" 
d="M458 274q-16 -6 -84 -20q-51 -10 -79 -29q1 15 1 -114q0 -57 -14 -91q-6 -2 -11 -2q-14 0 -24 18q-12 23 -16 26l22 163q-16 2 -35 2q-30 0 -77 -7q-67 -9 -78 -10q-2 6 -9 26q-6 15 -6 26q0 6 1 12q21 11 64 11q11 0 33 -1t33 -1q43 0 63 12q26 16 25 57q-4 9 -4 20v0
q0 12 7 43q6 26 3 38q-4 18 -27 25q-9 1 -18 1q-29 0 -79.5 -15.5t-75.5 -15.5q-32 0 -59 16q-3 17 14 27q14 7 27 15q21 1 87 12q58 10 90 10q68 0 106 -35q-2 -21 -16 -72q-13 -45 -13 -71q0 -30 14 -56q17 0 48 3.5t45 3.5q23 0 42 -7v-20z" />
    <glyph glyph-name="eight" unicode="8" horiz-adv-x="391" 
d="M359 138q-15 -64 -80 -105q-59 -38 -125 -38q-84 0 -104 65q-8 28 -8 58q0 94 64 175q-11 17 -35 15q-39 38 -45 46q-21 27 -26 59q17 54 74 84l102 50q98 3 135 -29q31 -21 48 -84q-28 -12 -63 -48q-38 -40 -56 -50q0 -20 -7 -22q51 -30 85 -74q38 -50 41 -102zM296 456
q-32 27 -74 27q-63 0 -151 -63q-8 -10 -8 -20q0 -22 43 -36q22 -15 43 -15q33 0 78 44q56 56 69 63zM303 173q-12 35 -48 59q-32 20 -72 25q-33 -20 -53 -66q-16 -41 -31 -82q-4 -10 -4 -18q0 -32 50 -32q9 0 17 1q132 38 141 113z" />
    <glyph glyph-name="nine" unicode="9" horiz-adv-x="428" 
d="M370 403q30 -43 30 -98q0 -72 -64 -198q-55 -55 -66 -64q-43 -34 -82 -34q-18 0 -35 6q-37 44 -48 60q-25 39 -25 71q0 9 2 17q17 -8 43 -53q23 -40 47 -40q13 0 30 9q94 52 127 148q-15 3 -30 3q-25 0 -78 -12.5t-83 -11.5q-12 -3 -23 -3q-54 0 -90 59q-14 17 -14 41
q0 3 14 72q100 119 200 119q24 0 48 -6q43 -6 97 -85zM342 326q4 34 -34 85q-34 18 -71 13q-53 7 -102 -37q-43 -38 -67 -96q18 -21 44 -21q12 0 41.5 7t48.5 6q19 9 71 20q47 10 69 23z" />
    <glyph glyph-name="colon" unicode=":" horiz-adv-x="217" 
d="M161 442v-29q-1 -15 -15.5 -22t-33.5 -7q-51 0 -64 43q-2 7 -2 14q0 32 38 50q10 2 20 2q45 0 57 -51zM133 117q-10 -75 -49 -91q-26 -3 -36.5 16.5t-19.5 39.5q3 23 26 40q3 2 43 24q11 -5 22.5 -11t13.5 -18z" />
    <glyph glyph-name="semicolon" unicode=";" horiz-adv-x="258" 
d="M231 465q2 -6 2 -11q0 -10 -9 -24q-12 -16 -14 -22q-41 8 -52 11q-28 10 -39 31q-5 22 18 38l38 26q11 4 18 4q12 0 16 -25.5t22 -27.5zM182 176q2 -20 -17 -21q-22 -1 -26 -15q24 -37 24 -81t-24 -81q-5 -16 -56 -70q-37 -4 -56 21q25 30 51 60q30 36 33 67
q-7 14 -27 14v0q-21 0 -24 1q-13 4 -18 19q-5 12 -5 22q0 25 32 47q44 30 50 38h38q23 0 25 -21z" />
    <glyph glyph-name="less" unicode="&#x3c;" horiz-adv-x="418" 
d="M388 87q-8 -9 -15 -17q-9 -11 -18 -11q-51 57 -160 120q-125 72 -169 111q2 2 10 33q5 20 26 16q4 -7 9 -12q101 106 230 178q9 -4 18.5 -8.5t12.5 -13.5q-19 -19 -108 -98q-67 -60 -102 -102q6 -4 80 -43q49 -27 77 -55q32 -10 65.5 -40.5t43.5 -57.5z" />
    <glyph glyph-name="equal" unicode="=" horiz-adv-x="472" 
d="M399 426q-4 -1 -166 -18q-99 -10 -159 -32q-25 13 -25 44q0 13 6 24q104 25 219 25q57 0 112 -7q5 -8 10.5 -17.5t2.5 -18.5zM435 340q1 5 1 -23q0 -13 -6 -20q-22 3 -44 3q-61 0 -177.5 -25.5t-177.5 -26.5q0 8 -9 22.5t-9 21.5q0 10 12 17q20 -5 42 -5q34 0 109 20
q70 19 112 16q32 13 77 13q46 0 70 -13z" />
    <glyph glyph-name="greater" unicode="&#x3e;" horiz-adv-x="418" 
d="M384 286q-44 -38 -169 -111q-109 -63 -160 -120q-9 1 -17 10.5t-16 17.5q10 27 43.5 57.5t65.5 41.5q28 28 77 54q74 40 80 43q-35 43 -102 102q-89 79 -109 99q4 9 13.5 13.5t18.5 8.5q129 -73 230 -179q5 6 9 12q20 4 26 -16q8 -31 10 -33z" />
    <glyph glyph-name="question" unicode="?" horiz-adv-x="354" 
d="M333 718l-13 -61q-25 -34 -89.5 -100t-90.5 -104q-42 -60 -50 -123q8 -13 27 -13q15 0 28 7q34 25 64 71q22 38 45 75q14 -13 14 -38q0 -20 -8 -41l-6 -6q3 -5 3 -10q0 -9 -11 -25q-14 -20 -16 -26q-50 -41 -52 -42q-30 -21 -59 -21q-11 0 -22 3q-19 5 -37 23t-24 37
q-3 12 -3 24q0 38 31 83q49 72 50 75q16 24 70 83q47 52 64 87q-5 1 -10 1q-15 0 -33.5 -13t-35.5 -25q-21 -43 -56 -43q-16 0 -28 13q-1 25 25 52q24 19 48 39q74 48 117 48q37 0 58 -30zM182 52q-10 -25 -19 -50q-15 -29 -42 -29q-6 -1 -11 -1q-12 0 -38 25q1 32 3.5 65.5
t33.5 44.5l44 -18q25 -14 29 -37z" />
    <glyph glyph-name="at" unicode="@" horiz-adv-x="723" 
d="M648 210q-57 -97 -120 -105q-28 -3 -57 18l-48 38q-24 -28 -49 -56q-32 -32 -62 -32q-18 0 -37 11q-35 38 -35 94q0 43 22 105q21 48 41 97q35 36 85 36q28 0 49 -15q23 -6 43.5 -27t27 -45t6.5 -52q0 -60 -28 -101q17 -21 34 -21q8 0 15 6q118 105 118 282q0 50 -11 99
q-15 66 -99 127q-41 17 -82 17q-105 0 -222 -109q-172 -160 -172 -400q0 -57 11 -115q13 -68 80 -117q54 -39 131 -59q126 -11 239 127h15q2 -55 -46 -98q-28 -23 -95 -57q-41 -15 -85 -15q-105 0 -190 71q-101 83 -101 257q0 83 24 195q89 158 120 199q83 110 182 132
q32 23 88 23q11 0 103 -9l77 -49q82 -70 82 -195q0 -87 -54 -257zM451 302v15q-7 26 -37 32q-27 2 -55 3q-66 -75 -66 -182q0 -18 3 -37q30 3 55 35q18 29 36 57q8 8 8 23q0 4 -1 10v10q0 20 14 28q20 10 43 6z" />
    <glyph glyph-name="A" unicode="A" horiz-adv-x="647" 
d="M627 -6q-12 -11 -26 -11t-25 11q-24 51 -66 177q-38 112 -71 175q-91 -18 -271 -56q-24 -52 -104 -276q-44 -3 -45 20q11 42 44 122t44 122q-5 4 -35 11q-22 6 -22 20q0 5 3 13q2 17 33 25q26 7 55 6q25 70 49 141q34 88 72 135q11 51 48 107q11 5 21 5q31 0 60 -59
l88 -256q37 14 51 14q22 0 23 -33q1 -26 -21 -41l-26 -14q16 -62 60 -180t61 -178zM426 407q-6 14 -41 131q-24 82 -55 125q-35 -42 -122 -292q43 -3 110 15q75 19 108 21z" />
    <glyph glyph-name="B" unicode="B" horiz-adv-x="516" 
d="M491 223q-18 -61 -32 -89q-23 -46 -63 -74q-58 -23 -127 -23q-77 0 -123 30q-18 16 -18 43q0 13 5 25q62 -35 137 -35q53 0 92 21q78 56 82 135q-39 89 -95 102q-35 -2 -96 -13q-64 -12 -93 -14q-26 24 -21 61q57 27 169 93q6 15 38 36q28 19 28 35q0 8 -5 17
q-45 35 -109 35q-39 0 -73 -15q-20 -9 -40 -17q-24 -11 -35 -30q-1 -109 -13 -272l-20 -274q-6 -2 -11 -2q-13 0 -22 17q-12 22 -15 25q11 77 17 194q5 99 10 197q11 19 11 40q0 19 -13.5 53.5t-13.5 52.5q0 23 16 44q13 14 40 13.5t41 13.5q51 14 103 14q91 0 147 -41
q27 -31 34 -109q-7 -17 -34.5 -46.5t-32.5 -41.5q58 -23 95 -82q33 -53 40 -119z" />
    <glyph glyph-name="C" unicode="C" horiz-adv-x="684" 
d="M750 115q-3 -18 -31 -19.5t-30 -20.5q-218 -62 -423 -62q-71 0 -137 8q-46 17 -75 67q-25 46 -28 102q-6 158 156 289q164 99 284 99q27 0 54 -4l34 -47v-14q-29 3 -57 3q-234 0 -361 -165q-57 -90 -57 -157q0 -30 9 -58q62 -66 181 -66q39 0 109 8q78 9 108 10
q6 1 122 19q72 11 115 35z" />
    <glyph glyph-name="D" unicode="D" horiz-adv-x="534" 
d="M495 337q8 -23 8 -48q0 -63 -63 -147q-85 -70 -114 -89q-70 -44 -129 -44q-38 0 -74 18q-10 4 -17.5 19.5t-16.5 21.5q0 -1 -15 -11q-10 -6 -19 -3q-22 21 -22 56v0q0 62 12 206q12 134 10 204q-1 34 25 46q13 5 56 8q39 3 54 13q108 -7 190 -77q78 -66 115 -173z
M440 351q-11 11 -34.5 46t-39.5 49q-75 68 -165 68q-37 0 -71 -14q3 -12 -3 -24.5t-11 -23.5q4 -54 -13 -144q-18 -98 -18 -143q0 -29 4 -56l27 -28q27 -8 53 -8q66 0 138 51l120 98q8 22 15 44q8 26 8 44q0 22 -10 41z" />
    <glyph glyph-name="E" unicode="E" horiz-adv-x="520" 
d="M481 574q-23 -12 -59 -16q-31 -2 -63 -4q-52 -14 -104 -29q-60 -18 -90 -52q-3 -22 -9.5 -67.5t-10.5 -68.5q8 -13 19 -13q6 0 19 6.5t21 6.5q15 -1 31 -1v0q20 0 82 7q50 5 83 1q1 -4 6 -18q5 -10 5 -17q0 -10 -11 -19q-28 -6 -140 -17q-85 -9 -135 -29q-1 -3 -23 -58
q-15 -35 -15 -61q0 -14 3 -27q27 -13 61 -13q22 0 69 8.5t71 8.5q30 6 91 19.5t92 20.5q13 -6 13 -16q0 -6 -6.5 -19t-6.5 -19q-31 -18 -92 -24t-91 -23q-12 2 -25 2q-27 0 -78.5 -11.5t-74.5 -11.5q-48 0 -78 34q-4 22 -4 46q0 47 30 139t28 147q20 20 20 75v14v13
q0 44 11 62q16 26 63 24q11 7 45 11q30 4 43 16q8 -2 17 -2v0q2 0 63 12q39 8 62 -10h61q8 -8 7 -14l-7 -6z" />
    <glyph glyph-name="F" unicode="F" horiz-adv-x="485" 
d="M471 355q-22 -30 -68 -46q-41 -11 -81 -22q-19 -6 -104 -18q-64 -9 -99 -29q1 -19 1 -39q0 -37 -5 -93q-8 -74 -9 -91q-7 -7 -19 -8q-11 1 -22 1q-11 26 -11 57q0 24 10 79q9 51 8 80q-43 25 -43 64q0 8 2 17q52 15 55 87v123q38 36 115 48l128 18q20 -7 65 -6
q40 1 63 -14q7 -7 7 -22v-24q-10 -8 -20 -8v0q-5 0 -26 7q-16 4 -28 1q-149 -9 -237 -42q-11 -14 -13 -39v0q-1 -5 -1 -49q1 -30 -6 -46q28 -5 60 -5q41 0 136 14q87 14 135 11z" />
    <glyph glyph-name="G" unicode="G" horiz-adv-x="590" 
d="M569 118q-8 -15 -17 -84q-7 -52 -37 -65q-26 13 -26 49q0 14 6 26q8 3 7 14q0 23 -1 19l-6 7q-66 -16 -133 -32q-87 -19 -146 -19q-125 0 -187 78q-7 32 -7 63q0 74 36 135.5t127 133.5q79 47 101 58q62 30 112 30q44 0 83 -22q11 -3 13 -19t7 -20q-7 -6 -18 -6v0
q-5 0 -27 5q-17 3 -29 1q-108 -14 -204 -81q-105 -72 -147 -188q-4 -10 -4 -20q0 -38 51 -68q103 -10 162 -8q146 7 237 60q3 70 -27 95q-32 3 -65 -13q-13 -6 -57 -34q-34 -6 -53 20q10 36 50 57q35 15 70 31q46 14 54 14q7 0 14 -1q46 -30 57 -95q4 -24 4 -121z" />
    <glyph glyph-name="H" unicode="H" horiz-adv-x="546" 
d="M589 289q-4 -1 -80 -8q-52 -4 -79 -14l12 -244q-12 -34 -34 -40q-23 41 -26 111q0 63 -1 125q2 23 -14 34q-47 -1 -112 -13q-55 -10 -111 -21q-8 -28 -8 -65q0 -23 5 -78q5 -49 3 -76l-34 -13q-29 71 -29 173q0 23 3 42q-22 0 -42.5 1t-24.5 23q5 31 23 33q36 4 53 14
q1 12 -2 72q-4 70 -4 109q0 122 26 144q6 2 11 2q21 0 29 -36q1 -20 -2 -94q-4 -83 -4 -118q0 -46 4 -65q71 9 210 34q15 31 19 148q1 74 3 149q9 4 16 4q11 0 17 -20t14 -24l-2 -244q13 -1 27 -1v0q12 0 64 3q38 3 64 0q14 -6 14 -22q0 -15 -8 -25z" />
    <glyph glyph-name="I" unicode="I" horiz-adv-x="343" 
d="M322 503q2 -6 2 -12q0 -28 -36 -62q-41 -14 -84 -14q-104 0 -173 68q0 13 -7 39.5t-7 39.5q0 21 14 36q55 47 121 47q32 0 61 -13l36 -30q22 -18 25 -38q-7 -3 -15 -3v0q-6 0 -59 19q-37 13 -61 -9q-7 2 -13 2q-25 0 -48 -29q9 -29 44 -44q17 -8 64 -17q13 1 35 0
q30 -2 37 -2q43 0 64 22zM200 50q-5 0 -15 -6.5t-15 -6.5q-6 0 -11 7q-13 26 -13 61v0q0 14 6 70q6 44 1 72q-9 31 -9 59q0 35 15 55q7 2 12 2q15 0 29 -35q7 -66 7 -139t-7 -139z" />
    <glyph glyph-name="J" unicode="J" horiz-adv-x="422" 
d="M396 239q17 -171 -120 -218q-18 -4 -36 -4q-36 0 -83 17l-77 28q-19 22 -37 44q-22 29 -22 56q0 14 5 28q13 17 20 23q11 9 27 11q-7 -12 -8 -35q1 -20 1 -39q27 -39 77 -53q16 -5 92 -15q58 6 108 81q3 21 3 47q0 55 -20.5 173.5t-21.5 159.5q-2 5 -2 10v0q0 26 27 30
q26 4 30 -26q-3 -42 14 -155q22 -154 23 -163z" />
    <glyph glyph-name="K" unicode="K" horiz-adv-x="502" 
d="M500 518q-15 -62 -69 -102q-32 -24 -111 -57t-111 -58q-2 -18 17 -24q26 -9 31 -16q16 -19 95 -106q60 -65 87 -111q5 2 10 2q20 0 23 -26q1 -21 1 -42q-24 -21 -42 -21q-10 0 -19 6q-38 56 -77 111q-47 67 -88 102q-55 47 -119 58l-27 33l-13 -33q7 -48 7 -101t-7 -102
q-8 -6 -20 -6q-13 0 -21 6q2 291 -27 446q2 7 13 11.5t21 8.5q28 -24 28 -77v-27q-1 -19 -1 -28q0 -30 7 -50q10 -11 18 -11t22.5 18t26.5 20q24 15 167 91q102 55 164 98z" />
    <glyph glyph-name="L" unicode="L" horiz-adv-x="524" 
d="M499 131q-85 -6 -121 -11q-60 -8 -116 -23q-26 -13 -77 -28q-55 -15 -78 -26q-6 -1 -11 -1q-12 0 -25 7t-25 14q-7 51 -7 126v0q0 226 1 183q-3 103 -28 171q-2 8 -2 15q0 28 26 28q19 0 37 -14.5t18 -34.5q16 -74 15 -197q-1 -184 -1 -202l13 -14q109 31 142 38
q83 19 147 19q45 0 85 -9q0 -5 7 -15t7 -15q0 -6 -7 -11z" />
    <glyph glyph-name="M" unicode="M" horiz-adv-x="600" 
d="M580 39q-6 -21 -26 -21q-17 0 -34 15q-33 47 -38 149q-6 116 -23 155q-76 -54 -120 -54q-25 0 -49 13q-44 25 -101 95q-61 75 -89 94l-6 -6q21 -66 21 -172v-50q-1 -34 -1 -51q0 -87 13 -146q-4 -10 -9.5 -21.5t-17.5 -12.5q-21 3 -47 40q2 48 2 96q0 230 -41 425
q0 14 15 14q35 0 31 -1q9 -5 27 -31q14 -19 34 -16q30 -22 69 -81q46 -68 66 -88q41 -41 90 -41q9 0 18 1q59 38 88 121q3 7 3 16t-4.5 26.5t-4.5 25.5q0 16 13 27q43 -8 54 -48q6 -19 7 -82q0 -56 13 -80q-7 -3 -7 -20l7 -7l-7 -7q6 -72 13 -144q10 -82 41 -133z" />
    <glyph glyph-name="N" unicode="N" horiz-adv-x="463" 
d="M428 32q-5 0 -16.5 -6.5t-17.5 -6.5q-7 0 -13 7q-20 12 -25 46q-8 54 -9 55q-53 50 -122 153q-74 109 -115 151q-2 -22 -2 -49v0q0 -30 7 -128q6 -80 2 -127q7 -19 7 -42q0 -74 -34 -74q-8 0 -17 6q-15 9 -17 9q2 41 2 84q0 179 -36 470q9 2 18 2q37 0 74 -46
q28 -39 57 -78q12 -33 74 -115q1 -1 37 -57q22 -35 44 -51l14 27q1 45 -6 130q-8 91 -8 132q0 93 28 157q6 3 10 3q8 0 18.5 -11t18.5 -12q-1 -31 -8 -102q-6 -66 -6 -100q0 -42 7 -75q-2 -11 -2 -25v0q0 -4 7 -74q5 -47 -5 -77q-3 -8 -3 -17v0q0 -14 26 -59q19 -33 -3 -59z
" />
    <glyph glyph-name="O" unicode="O" horiz-adv-x="524" 
d="M496 392q3 -127 -80 -269q-90 -155 -203 -168q-35 13 -71 26q-39 18 -49 50q-41 34 -62 129q-18 79 -18 180q0 81 11 133q15 72 69 110q81 58 138 58q23 0 45 -7q42 -3 87 -48q58 -60 69 -66q1 -2 36 -60q23 -39 28 -68zM435 366q0 51 -24 97q-5 -17 -10 -33
q-6 -20 -18 -31q-35 -2 -57 13q-2 15 8 45t10 43q0 33 -37 64t-72 31q-8 0 -16 -2q-81 -21 -115 -83q-29 -51 -34 -147q-6 -95 22 -215q18 -76 70 -114q25 -19 49 -19q26 0 50 21q14 16 44 39q61 88 87 139q43 84 43 152z" />
    <glyph glyph-name="P" unicode="P" horiz-adv-x="434" 
d="M386 410q-28 -54 -88 -100q-39 -28 -115 -69q-13 5 -22 5q-18 0 -23 -22.5t-9 -43.5v-182q-7 -7 -23 -7h-25l-20 20l-1 122q-1 72 15 115q-22 19 -22 41v0q0 7 19 57q14 37 -4 64q6 3 6 7q0 2 -3.5 9t-2.5 11q-35 21 -35 58q0 16 8 30q60 113 142 128q143 -3 203 -81
q25 -27 25 -69q0 -43 -25 -93zM325 552q-21 27 -62 32l-74 2q-7 -8 -26 -19q-15 -9 -21 -22v-126q0 -76 7 -124q15 13 72 38q47 19 63 50q54 75 54 120q0 26 -13 49z" />
    <glyph glyph-name="Q" unicode="Q" horiz-adv-x="561" 
d="M515 424q18 -41 18 -89q0 -98 -79 -227q3 -11 36 -75q23 -45 18 -81q-36 6 -56.5 56.5t-51.5 58.5q-81 -55 -167 -55q-32 0 -63 8q-54 13 -97 63t-52 106q-7 126 66 235q69 103 184 156q29 14 61 14q88 0 142 -82q-9 -12 -9 -23q0 -13 23 -31.5t27 -33.5zM427 194
q46 68 46 160q0 91 -46 158q-3 6 -15.5 7.5t-11.5 12.5q-21 4 -40 4q-116 0 -198 -110q-75 -100 -80 -225q16 -55 25 -72q21 -38 56 -50q26 -8 52 -8q67 0 151 57q-30 45 -43 61q-28 34 -58 46q0 34 13 41q9 4 19 4q31 0 69 -37l54 -54z" />
    <glyph glyph-name="R" unicode="R" horiz-adv-x="488" 
d="M513 39q2 -37 -21 -54q-1 -6 -8 -7q-5 -1 -16.5 -0.5t-15.5 0.5q-62 39 -164 144q-99 101 -166 140q-12 -36 -17 -122q-6 -89 -17 -128q-6 -22 -27 -22q-28 0 -28 52q0 19 8 47q6 22 13 44q-3 24 -3 53q0 31 5 90t5 87q0 65 -20 108q1 2 9 52q5 31 24 36q7 -3 15 -3
q13 0 41.5 12t45.5 11q127 9 189 -94q15 -15 14 -48q-1 -50 0 -54q-29 -66 -149 -115l7 -20q36 -21 86 -80q59 -70 83 -90q51 -41 107 -39zM318 471q-35 37 -93 37q-47 0 -103 -23v-176q34 15 69 30q40 16 73 24q56 35 56 86q0 11 -2 22z" />
    <glyph glyph-name="S" unicode="S" horiz-adv-x="463" 
d="M447 224q3 -13 3 -26q0 -29 -21 -61q-19 -28 -37 -55q-52 -28 -103 -56q-64 -34 -111 -34q-35 0 -69 16q-57 48 -68 108q-2 10 -2 19q0 38 36 89q14 -17 14 -46v0q0 11 -3 -42q-1 -26 5 -41q8 -20 31 -33q17 -2 34 -2q74 0 135 34q66 36 101 103q-1 45 -35 61
q-19 9 -73 13t-74 14q-9 -3 -19 -3q-17 0 -50.5 11.5t-52.5 11.5q-51 18 -67 81q37 122 250 163q72 -22 74 -23q41 -20 47 -58q-7 -11 -6 -14l6 -7q-2 -7 -20 -7q-15 44 -74 44q-19 0 -56 -5t-52 -5q-10 -11 -65 -38q-40 -20 -43 -56q18 -15 55 -19q49 -5 59 -8q2 0 102 -14
q64 -9 96 -29q44 -27 53 -86z" />
    <glyph glyph-name="T" unicode="T" horiz-adv-x="524" 
d="M500 476q-19 -5 -39 -5q-41 0 -69 18q-32 -5 -115 -20q2 -19 2 -42q0 -31 -5.5 -96.5t-5.5 -97.5q0 -22 2 -41q-1 -47 -2 -93q-5 -57 -32 -83q-22 19 -26 56q0 33 -1 66q7 39 7 96v0q0 115 -1 112q3 64 21 110q-10 6 -26 6q-32 0 -68 -20q-16 0 -50 -10t-49 -10
q-29 0 -43 27q1 15 23 27l38 20q150 47 283 47q70 0 136 -13q22 -13 20 -54z" />
    <glyph glyph-name="U" unicode="U" horiz-adv-x="520" 
d="M478 224q-23 -7 -33.5 -42t-27.5 -46q-38 -102 -202 -169q-48 0 -92 33q-41 29 -64 75q-31 61 -31 160q0 69 18 185q4 25 22 65q20 45 25 63q17 3 30.5 -5t16.5 -22q-3 -22 -29 -128q-19 -78 -19 -128q0 -14 1 -28q-1 -10 -1 -22q0 -20 5 -55q8 -46 9 -58
q23 -22 46.5 -43t55.5 -18q90 25 160 119q64 85 83 185q-6 62 -11 123q-11 70 -50 107q12 11 23 11q17 0 35 -30l24 -48q22 -57 22 -142q0 -76 -16 -142z" />
    <glyph glyph-name="V" unicode="V" horiz-adv-x="561" 
d="M555 545q2 -25 -12.5 -44.5t-28.5 -37.5q-29 -81 -105 -207q-83 -139 -111 -205q4 -26 -20 -34q-24 4 -33 39q-10 40 -28 49q-19 30 -91 165q-54 102 -105 160q0 16 -1 31q1 18 21 16q35 -10 75 -68q17 -58 66 -135q80 -125 82 -128q65 63 130 205q71 155 120 214
q4 1 8 1q9 0 17 -7z" />
    <glyph glyph-name="W" unicode="W" horiz-adv-x="682" 
d="M717 555q-92 -163 -142 -311q-18 -24 -46 -110q-23 -72 -62 -100q2 -5 2 -9q0 -10 -11 -20q-15 -14 -17 -18q-12 11 -17 54q-3 37 -32 47l-66 169q-31 -23 -66 -70q-56 -77 -56 -78q0 -7 6.5 -22t6.5 -22q0 -9 -6 -17q-11 -12 -25 -13v0q-12 0 -26 -1t-24 -13
q-28 18 -28 41v0q0 12 21 57q17 36 1 57q-10 57 -59 150q-52 98 -63 148q7 12 19 12q8 0 15 -6q43 -50 76 -126q26 -68 52 -137l20 -20l114 135q-4 28 24 35q38 11 44 19q26 5 34 -20q4 -7 4 -13q0 -13 -18 -29t-20 -26l30 -94q17 -56 51 -75q42 81 103 216q77 169 100 217
q8 23 34 23q27 0 27 -30z" />
    <glyph glyph-name="X" unicode="X" horiz-adv-x="453" 
d="M438 132q-2 -12 -3 -24q-4 -14 -16 -15q-85 75 -110 100q-58 58 -91 113q-144 -155 -140 -314q-26 -4 -42 14q-15 15 -18 40q6 55 35 114q17 36 59 103.5t59 102.5q-17 32 -60 74q-49 49 -66 73q13 36 29 36q5 0 11 -2q1 -2 59 -70q35 -42 67 -58l84 106q52 65 103 88
q39 -15 33 -54q-53 -49 -107 -98q-62 -62 -79 -115q26 -48 90 -112q52 -51 103 -102z" />
    <glyph glyph-name="Y" unicode="Y" horiz-adv-x="546" 
d="M521 413q-1 -9 -15.5 -21.5t-14.5 -21.5q0 -5 3 -10q-18 -32 -94 -83q-64 -43 -73 -91q1 -24 -6.5 -71t-7.5 -69q0 -44 20 -74q-9 -14 -20 -14q-22 0 -46 40q-8 51 -8 107q0 57 8 107q-16 17 -55 21q-61 5 -66 7q-36 9 -53 38q-88 104 -88 252q0 42 9 82q11 14 21 14
q15 0 39 -47q3 -14 -9 -32t-12 -28q11 -86 26 -125q25 -67 82 -95q26 -7 55 -7q51 0 97 20q5 -2 9 -2q10 0 29.5 10t29.5 12q116 96 116 196q0 16 -3 31l6 7q35 -40 35 -89q0 -31 -14 -64z" />
    <glyph glyph-name="Z" unicode="Z" horiz-adv-x="561" 
d="M607 196q-6 -28 -60 -47q-54 -11 -195 -80q-121 -58 -201 -58q-22 0 -44 5l-7 -7q-71 45 -80 100q-1 8 -1 15q0 36 33 71l62 54q84 59 169 118q100 70 164 129q-22 25 -54 25q-17 0 -54.5 -9.5t-57.5 -9.5q-7 0 -14 1q-15 2 -47 -6q-36 -8 -49 -8q-32 0 -38 34
q-3 24 14 32q10 6 39.5 7.5t40.5 6.5q29 -3 82 5q59 9 81 9q50 0 84 -27q35 -35 35 -75q0 -9 -2 -19q-58 -63 -225 -170q-151 -97 -209 -177q15 -41 68 -41q16 0 42 4q31 4 37 5q93 39 185 78q107 40 195 48q-1 -7 7 -13z" />
    <glyph glyph-name="bracketleft" unicode="[" horiz-adv-x="418" 
d="M388 87q-8 -9 -15 -17q-9 -11 -18 -11q-51 57 -160 120q-125 72 -169 111q2 2 10 33q5 20 26 16q4 -7 9 -12q101 106 230 178q9 -4 18.5 -8.5t12.5 -13.5q-19 -19 -108 -98q-67 -60 -102 -102q6 -4 80 -43q49 -27 77 -55q32 -10 65.5 -40.5t43.5 -57.5z" />
    <glyph glyph-name="backslash" unicode="\" horiz-adv-x="337" 
d="M319 35q-18 -12 -30 -12q-15 0 -27 36q-13 41 -35 49q3 8 3 15v0q0 15 -23.5 37.5t-16.5 45.5q-31 48 -63 124q-26 64 -53 128l6 -7q2 5 2 9q0 11 -18.5 28t-20.5 31q4 9 4 17q0 12 -17 32t-18 37l20 31q31 -20 53 -77q36 -92 38 -95q30 -86 94 -216q85 -174 102 -213z
" />
    <glyph glyph-name="bracketright" unicode="]" horiz-adv-x="418" 
d="M384 286q-44 -38 -169 -111q-109 -63 -160 -120q-9 1 -17 10.5t-16 17.5q10 27 43.5 57.5t65.5 41.5q28 28 77 54q74 40 80 43q-35 43 -102 102q-89 79 -109 99q4 9 13.5 13.5t18.5 8.5q129 -73 230 -179q5 6 9 12q20 4 26 -16q8 -31 10 -33z" />
    <glyph glyph-name="asciicircum" unicode="^" horiz-adv-x="487" 
d="M474 365q1 -9 -7 -18.5t-16 -18.5q-28 5 -63 34t-51 59q-32 22 -66 67q-51 67 -55 72q-37 -41 -85 -116q-64 -101 -80 -123q-9 2 -15 10.5t-12 17.5q52 138 141 254l-14 8q-2 6 -2 10q0 12 18 19q23 9 28 14q44 -38 135 -150q80 -98 144 -139z" />
    <glyph glyph-name="underscore" unicode="_" horiz-adv-x="472" 
d="M529 -45q-30 -41 -68 -41q-6 0 -11 1l-5 7q-10 -13 -34 -9q-27 4 -35 -2l-157 -17l-6 6l-199 -18q-15 10 -18 14q-8 8 -9 20q2 19 3 21q3 10 14 15q43 -4 91 -4q61 0 196 10q126 10 196 8z" />
    <glyph glyph-name="grave" unicode="`" horiz-adv-x="262" 
d="M236 471q-2 -9 -5 -19.5t-12 -12.5q-2 1 -88 84q-25 23 -94 70q-2 7 -2 15q0 17 11 28.5t29 11.5q71 -57 89 -78q36 -50 72 -99z" />
    <glyph glyph-name="a" unicode="a" horiz-adv-x="363" 
d="M420 37q-19 -38 -74 -38q-49 0 -85 56q1 6 -6 13q-27 -26 -54 -53q-32 -27 -63 -33q-82 27 -104 91q-4 22 -4 43q0 137 127 246q12 10 56 25q23 1 44.5 -15.5t28.5 -40.5q5 -6 6.5 -27t11.5 -27q-1 -10 -8 -63q-6 -42 -6 -67q0 -64 32 -98q9 -6 19 -6v0q13 0 35 12.5
t29 11.5q12 -1 15 -30zM249 319q-3 2 -11 11t-14 9q-3 0 -6 -1q-136 -99 -136 -227q0 -12 2 -25q19 -45 45 -45q7 0 15 3q64 42 84 122q10 77 21 153z" />
    <glyph glyph-name="b" unicode="b" horiz-adv-x="300" 
d="M280 206q-12 -167 -98 -239q-65 9 -80 42q-15 -16 -37 0q-18 14 -18 30q0 8 6 14q-2 52 -16 219q-11 137 -11 220q0 43 3 82l26 -6.5t16 -18.5q7 -24 6 -90q-1 -59 12 -87q10 8 56 24q102 -32 135 -190zM218 212q-21 88 -60 123q-22 3 -38 -15l-24 -34l13 -239
q7 -31 49 -25q58 66 60 190z" />
    <glyph glyph-name="c" unicode="c" horiz-adv-x="291" 
d="M280 135q-28 -50 -55 -100q-35 -56 -86 -60q-49 -3 -86 56q-33 93 -33 182q0 145 88 229q18 7 37 7q32 0 58.5 -19t33.5 -50q6 -13 6 -54l-12 -13q-14 27 -27 54q-16 31 -41 44q-103 -80 -103 -203q0 -27 6 -55q18 -95 60 -129q40 12 74 62q43 65 61 80z" />
    <glyph glyph-name="d" unicode="d" horiz-adv-x="351" 
d="M339 82q-13 -14 -56 -11q-34 2 -42 -32q-58 -45 -93 -43q-73 19 -116 86q-9 33 -9 68q0 132 107 220q21 13 45 13q41 0 96 -37q7 12 7 30q0 15 -6 44.5t-6.5 41.5t-4.5 53q-3 32 -3 51q0 50 19 86q38 -7 38 -43q0 -12 -5.5 -41t-5.5 -43q0 -15 4 -26q5 -14 7.5 -51
t10.5 -53v-38q0 -28 6 -42q-7 -71 -7 -118q0 -67 14 -115zM265 272q-28 48 -79 62q-83 -39 -111 -178q0 -63 49 -99q8 -2 17 -2q42 0 86 50t44 119q0 24 -6 48z" />
    <glyph glyph-name="e" unicode="e" horiz-adv-x="287" 
d="M198 265q-35 -37 -91 -37q-20 0 -38 6q-8 -65 31 -178q14 -18 30 -18q8 0 14 6q19 11 49 57q25 37 55 41q-6 -48 -35 -92.5t-69 -67.5q-65 13 -86.5 56.5t-32.5 84.5q-17 64 -14 136q4 129 78 208q21 32 61 32t72.5 -36.5t32.5 -78.5q0 -60 -57 -119zM193 400
q-6 14 -12 27q-9 16 -24 16q-33 0 -57 -48.5t-24 -99.5q6 -6 20 -6h23q66 41 74 111z" />
    <glyph glyph-name="f" unicode="f" horiz-adv-x="376" 
d="M352 299q-17 -25 -89 -35q-76 -10 -93 -26q1 -10 0 -22q-2 -15 -2 -20q0 -17 11 -39q-6 -7 -6 -18q0 -3 12 -43q20 -66 20 -79q0 -19 -8 -31q-41 -6 -56 31q0 44 -11 106q-10 51 -19 102q-16 -2 -56 -23q-36 -19 -55 -18q-21 1 -36 22q-3 11 7 21q16 15 17 16
q19 13 61.5 25t61.5 24q-13 93 -13 147q0 144 74 215q13 2 25 2q54 0 98 -39l30 -42q16 -24 16 -47q0 -10 -3 -21q-6 -9 -30 -24q-2 36 -23.5 72.5t-56.5 56.5q-80 -50 -80 -184q0 -53 13 -123l5 -6l166 18z" />
    <glyph glyph-name="g" unicode="g" horiz-adv-x="325" 
d="M298 0q0 -125 -54 -206q-24 -25 -65 -25q-21 0 -39 7q-79 102 -74 238q6 4 7 13v0v17q2 10 12 14q-70 56 -61 190q41 82 45 88q32 49 77 58q89 5 142 -67q5 -16 -13 -31q-2 -3 -2 -8v0l7 -32q4 -20 -5 -33q7 -56 15 -112q8 -66 8 -111zM244 303v13q-16 23 -61 29
q-39 -5 -63 -44q-17 -36 -35 -72q-2 -4 -2 -9v0q0 -2 7 -20q4 -11 -5 -20q7 -3 7 -13q-1 -24 -1 -17q4 -51 49 -49q57 27 61 91q9 13 6 44q-3 36 0 46q7 21 37 21zM232 88q-12 -6 -32 -32q-17 -21 -32 -21q-7 0 -16 4q-6 -7 -20 -6q-28 0 -22 0l5 -123q15 -6 33 -44.5
t41 -40.5q69 96 43 263z" />
    <glyph glyph-name="h" unicode="h" horiz-adv-x="307" 
d="M285 98q-6 -24 -7 -51q-1 -18 0 -48v-48q-41 -7 -49 24l-2 170q-7 95 -53 149q-4 0 -25 -19l-28 -54q-16 -32 -21 -56q-14 -24 -13 -68l1 -73q-7 -6 -19 -6q-11 0 -18 6q-25 12 -25 40q0 11 7 40t6 43q5 29 5 62q0 39 -9 96q-13 80 -14 93q-8 75 11 129q12 -3 31 -18
q4 -58 9 -115q5 -69 16 -112q1 1 36 41q24 27 50 26q64 -28 89 -109q15 -45 22 -142z" />
    <glyph glyph-name="i" unicode="i" horiz-adv-x="294" 
d="M212 459q-7 -13 -28 -34q-30 1 -60 1q-35 0 -56 17q-53 42 -46 85q13 45 93 71q35 4 64.5 -17.5t29.5 -46.5q0 -4 -16 -18q-20 23 -64 23q-11 0 -21 -2q-9 -6 -26 -22q-1 -3 -1 -7q0 -11 12 -16.5t22 -10t20 -4.5q13 0 33.5 6.5t26.5 6.5q18 0 17 -32zM269 33
q-12 -31 -50 -31q-21 0 -57 11q-46 41 -58 71q-13 36 -13 91q0 19 7 110q6 11 13 23t21 11q20 -21 20 -60q0 -17 -5.5 -54.5t-5.5 -56.5q0 -23 6 -41q16 -43 56 -49l59 25q0 -2 4.5 -13t4.5 -17q0 -9 -8 -14z" />
    <glyph glyph-name="j" unicode="j" horiz-adv-x="302" 
d="M215 465q-4 -7 -17 -68q-10 -45 -44 -56q-47 -15 -98 0q-51 26 -43 80q9 60 36 86q23 13 49 13q56 0 117 -55zM233 176q2 -34 21 -127q17 -86 17 -132q0 -92 -56 -146q-52 -1 -105 26q-29 15 -92 60q-4 -2 -8 -2q-9 0 -18 10q-13 14 -16 16q0 7 -1 14q1 8 7 10
q23 -7 92 -49q56 -34 98 -36q44 54 44 125q0 45 -25.5 138.5t-25.5 139.5q0 13 1 26q10 3 18 3q25 0 37 -26q6 -13 12 -50zM154 445q-9 8 -23 12t-26 8q-16 -11 -31 -56q6 -23 31 -19q22 15 30 23q17 16 19 32z" />
    <glyph glyph-name="k" unicode="k" horiz-adv-x="302" 
d="M311 57q-8 -17 -25 -24q-11 1 -44 31q-5 30 -34 64q-25 26 -51 52q-46 -18 -53 -76q-1 -48 -2 -95q-2 -7 -15 -7h-22l-18 19q2 105 -3 256q-5 123 -9 247q35 -7 43 -47q5 -35 11 -70q0 -1 4 -88q3 -52 15 -84q24 18 59 76q31 50 64 66q17 -7 24 -25q-6 -27 -29 -61
l-38 -56q36 -30 68 -85q52 -89 55 -93z" />
    <glyph glyph-name="l" unicode="l" horiz-adv-x="231" 
d="M254 188q-18 -57 -57 -101q-43 -47 -96 -65q-63 16 -63 76v0q0 13 15 96q11 63 -1 99q-5 23 -7 54v0v86q-1 49 -12 80q-3 13 1.5 26.5t13.5 13.5q5 0 9 -4q3 6 7 6q3 0 8.5 -3t9.5 -3q18 -21 18 -41q0 -11 -6 -19q1 -37 7 -113t6 -114q0 -45 -6 -80q-1 10 -1 -42
q0 -29 6 -44q27 8 64 44q43 44 60 54q-4 0 13 1q8 0 11 -7z" />
    <glyph glyph-name="m" unicode="m" horiz-adv-x="450" 
d="M416 160q0 -7 1 -86q0 -51 -13 -79q-7 -1 -13 -1q-31 0 -31 40v0q0 6 1 28q1 17 0 27q-1 14 -6 22l6 6q-3 13 -8 73q-3 45 -17 69q-23 -19 -40 -58q-13 -33 -27 -66q-1 -3 -9 -41q-4 -25 -22 -32q-41 -6 -49 24q-2 15 -2 32v0q0 14 4 53q2 33 0 51q-2 27 -14 49
q-81 -86 -85 -252q1 -6 -4 -10t-9 -8q-49 -3 -49 54q14 64 13 161q-1 145 0 159q7 18 21 18q11 0 46 -24q0 -7 -1 -24q-1 -15 0 -23q2 -12 7 -21q10 28 54 43q42 0 62 -43q11 -35 18 -61q13 11 32.5 44.5t31.5 44.5q21 19 47 15q35 -26 45 -83q5 -51 10 -101z" />
    <glyph glyph-name="n" unicode="n" horiz-adv-x="340" 
d="M321 171q-2 -38 -12 -97q-10 -50 -19 -100q-3 -2 -14 -13.5t-17 -11.5t-12 7q-12 15 -12 35q0 14 9 45.5t9 47.5q6 68 6 90q0 103 -67 137q-26 5 -53 -17l-40 -38q-14 -111 -11 -227q-23 -24 -39 -24q-9 0 -17 6q-6 21 -6 51q0 20 4 62.5t4 63.5q0 17 -2 32q6 18 6 40
q0 15 -4 45.5t-4 47.5q0 13 2 25q9 13 23 13q28 0 39 -31q0 -16 5 -18q28 21 67 21q24 0 62 -9q81 -55 93 -183z" />
    <glyph glyph-name="o" unicode="o" horiz-adv-x="304" 
d="M268 269q13 -35 13 -74q0 -90 -62 -165q-33 -19 -74 -31q-44 3 -80 36q-34 30 -48 75q-4 139 91 238q25 27 53 27q33 0 66 -37q26 -30 41 -69zM212 263q-10 6 -22 33q-10 24 -26 24q-5 0 -12 -2q-72 -91 -72 -181q0 -20 4 -40q1 -17 16.5 -30t32.5 -12q28 0 68 42
q19 32 19 76q0 17 -3 45q-4 37 -5 45z" />
    <glyph glyph-name="p" unicode="p" horiz-adv-x="377" 
d="M347 283q12 -28 12 -63q0 -58 -30 -95q-80 -61 -142 -62q-73 22 -92 62q-5 -33 -6 -82v0q1 -56 -6 -164v-26q0 -20 -7 -30q-25 -6 -30 -5q-13 22 -13 60q0 27 7 62v68q2 14 2 31q0 32 -10.5 96t-10.5 94q0 61 31 103q13 -6 25 -6q19 0 53.5 22t56.5 22q125 -4 160 -87z
M291 272q-7 9 -22 20t-20 16q-12 2 -23 2q-45 0 -101 -38q-31 -22 -31 -63q0 -8 1 -17q2 0 14 9q8 6 16 4q6 -5 13 -26q-2 -4 -2 -9q0 -8 11 -22q13 -18 15 -23q12 -3 24 -3q60 0 93 52q18 39 18 67q0 17 -6 31z" />
    <glyph glyph-name="q" unicode="q" horiz-adv-x="333" 
d="M425 -76q-12 -21 -57 -24q-36 -2 -73 -4q-36 -6 -36 -35q0 -19 13 -48q4 -7 9 -14.5t3 -16.5q-20 -15 -49 -12q-19 10 -19 45v0q0 32 -3 39q-6 18 -34 14q-63 -47 -116 -55q-19 19 -19 26q0 6 6 11q33 27 81 51q43 21 85 41v65q0 39 -6 64q-33 -13 -70 -13q-70 0 -108 44
q-13 20 -13 44q0 40 51 109q29 40 85 67q12 4 23 4q30 0 57 -33q21 -28 42 -57q8 -29 8 -64q0 -31 -11 -107q-10 -71 -9 -111l12 -12l135 -7zM216 193q-4 7 -6 51q-2 32 -24 32q-8 0 -19 -3q-65 -51 -86 -135q28 -25 68 -25q19 0 37 7q25 5 27 31q2 21 3 42z" />
    <glyph glyph-name="r" unicode="r" horiz-adv-x="328" 
d="M298 313q-5 -12 -11 -24t-20 -12q-28 16 -57 32q-22 12 -37 12q-11 0 -24 -5q-17 -7 -31 -25q-28 -38 -33 -44q0 -8 10 -69q9 -57 9 -60l18 -129q-8 -16 -25 -16q-16 0 -26 16q-9 130 -46 339q0 24 18 36q11 -9 22 -19.5t13 -25.5q9 2 33 25.5t34.5 25t20.5 1.5
q73 0 132 -58z" />
    <glyph glyph-name="s" unicode="s" horiz-adv-x="344" 
d="M316 127q3 -11 3 -22q0 -36 -31 -68l-58 -50q-56 -7 -54 -7q-51 0 -89 51q-36 47 -35 96q8 -5 55 -55q35 -38 66 -38q15 0 32 8q65 31 68 98q-29 37 -80 48q-45 7 -90 13q-51 10 -81 44v13q0 8 -6 11q58 54 91 76q56 37 103 37q36 0 69 -21v-25q-16 4 -32 4
q-39 0 -81 -24q-35 -24 -71 -47q8 -10 22 -12v0h30q19 0 28 -6q129 -36 141 -124z" />
    <glyph glyph-name="t" unicode="t" horiz-adv-x="384" 
d="M379 318q-46 -9 -92 -17q-54 -11 -86 -32q-1 -19 -10 -74q-9 -49 -9 -76q0 -58 32 -89q57 5 141 68q4 -13 4 -24q0 -30 -31 -55q-27 -19 -53 -38q-11 0 -32 -6.5t-31 -6.5q-17 0 -29 13q-44 52 -44 147q0 52 13 117l-13 12q-16 -4 -60 -27q-36 -19 -62 -22q0 6 -9 16
t-9 15q0 6 6 12q44 40 147 73q2 13 2 28q0 17 -4 50t-4 49q0 33 13 58q30 -17 30 -69v-20q-1 -13 -1 -20q0 -44 20 -64q52 12 159 26q5 -10 9 -20q6 -13 3 -24z" />
    <glyph glyph-name="u" unicode="u" horiz-adv-x="377" 
d="M399 96q6 -31 -19 -49q-21 -14 -52 -14q-54 0 -76 39q-4 5 -7 23.5t-12 25.5q-10 -12 -23 -70q-10 -43 -44 -47q-41 1 -71 42q-9 13 -40 75q-1 29 -13 98q-11 64 -11 99q0 43 12 79q-7 40 12 55q11 2 23.5 -11t20.5 -14q-12 -67 -12 -132q0 -128 43 -223q3 -5 7.5 -10
t10.5 -3q70 124 70 284q0 30 -3 60q6 4 12 4q12 0 25 -16q9 -13 18 -25q9 -35 15 -147q5 -95 28 -142q10 2 36 15q23 11 34 11q10 0 16 -7z" />
    <glyph glyph-name="v" unicode="v" horiz-adv-x="337" 
d="M320 424q-41 -74 -62 -187q-15 -100 -29 -200q-25 -12 -30 -12q-8 0 -14 6q-39 61 -85 177q-52 128 -80 179q8 9 16 9q9 0 24 -17t22 -17q1 -2 42 -78q25 -46 31 -80q10 -7 15 -26.5t15 -23.5q10 28 35 154q19 95 51 147q5 1 9 1q10 0 21 -12q15 -17 19 -20z" />
    <glyph glyph-name="w" unicode="w" horiz-adv-x="437" 
d="M413 281q-21 -39 -39 -156q-17 -104 -53 -144q-37 3 -58 33q-12 17 -26 62.5t-27 63.5q-4 -8 -26 -78q-15 -48 -41 -63q-31 -4 -47 31q-10 30 -20 61q-9 58 -31 139q-18 69 -37 138q6 14 20 14q11 0 29 -9l19 -30q11 -58 23 -115q14 -70 32 -113q13 17 33 83q18 57 46 77
q5 -13 30 -22q20 -8 20 -27q0 -33 12 -75l24 -72q77 196 98 331q32 -6 32 -38q0 -12 -7.5 -44.5t-5.5 -46.5z" />
    <glyph glyph-name="x" unicode="x" horiz-adv-x="384" 
d="M354 48q-24 20 -79 82q-49 55 -81 76q-71 -78 -117 -189q-5 -1 -9 -1q-16 0 -20 21q-5 32 -7 35q14 38 50 90q53 77 60 88q-56 41 -62 45q-36 24 -67 34q1 4 -3 10t-4 10q0 3 2 5l18 19q82 -40 140 -87q9 5 45 52q32 41 49 41q19 0 30 -44q-33 -18 -74 -85q14 -10 57 -72
q33 -46 72 -51q0 -9 9 -28t9 -27q0 -15 -18 -24z" />
    <glyph glyph-name="y" unicode="y" horiz-adv-x="381" 
d="M359 291q3 -59 -44 -116q-31 -37 -97 -87q-7 -21 -7 -46q0 -22 6.5 -63.5t6.5 -61.5q-42 3 -52 46q-5 38 -10 77q-9 42 -49 43q-62 28 -78 98q-7 30 -7 62q0 74 36 158q5 1 9 1q14 0 23 -16q6 -13 12 -27q-31 -50 -31 -127q0 -34 7 -70q18 -24 53 -24q17 0 32 6
q7 3 13 15t14 12q4 0 10 -3l6 -6q53 33 85 76q38 52 32 102v6q20 -13 30 -55z" />
    <glyph glyph-name="z" unicode="z" horiz-adv-x="390" 
d="M372 133q-112 -105 -247 -105q-36 0 -73 7q-37 22 -37 66q0 16 6 32q21 54 94 102q102 68 115 82q-33 7 -65 7q-67 0 -106 -32q-31 10 -38 31q13 54 97 55v0h46q26 1 42 7q10 2 21 2q32 0 58.5 -18.5t26.5 -45.5q0 -32 -33 -49q-59 -36 -118 -73q-69 -46 -96 -98
q20 -14 56 -14q26 0 61.5 7.5t88.5 30.5q75 32 88 36q5 -3 10 -7.5t3 -10.5l-7 -6z" />
    <glyph glyph-name="braceleft" unicode="{" horiz-adv-x="230" 
d="M210 532q4 -10 -7 -20q-17 -15 -17 -16q-73 -14 -105 -141q-1 -30 -1 -54q0 -134 75 -198q-7 -2 -6 -11q0 -16 1 -13q0 -1 23 -14q15 -9 13 -23q-6 -6 -14 -6q-6 0 -17.5 6t-17.5 6q-104 100 -104 265q0 76 24 146q62 106 111 106q25 0 42 -33z" />
    <glyph glyph-name="bar" unicode="|" horiz-adv-x="204" 
d="M162 663q14 -23 14 -57q0 -23 -8.5 -70.5t-8.5 -69.5q-18 -91 -27 -238q-10 -195 -15 -238q-47 -3 -47 24v0q0 -9 7 42q4 28 -10 44q15 12 15 28v0q0 -2 -11 38q-6 23 13 39q-3 34 -3 67q0 35 13 181l16 23q9 7 9 17q0 7 -6 22.5t-6 24.5q0 7 3 14q21 14 15 42
q-7 34 1 49z" />
    <glyph glyph-name="braceright" unicode="}" horiz-adv-x="244" 
d="M198 347q20 -40 20 -86q0 -91 -75 -196q-23 -23 -34 -32q-19 -15 -40 -17q-2 3 -10.5 11t-8.5 14q0 3 1 6q60 41 93 102q34 65 29 137q-5 89 -122 208l6 26q47 -18 85 -73q21 -29 56 -100z" />
    <glyph glyph-name="asciitilde" unicode="~" horiz-adv-x="394" 
d="M373 547q-48 -59 -64 -74q-5 -4 -39 -27t-37 -24q-10 -3 -17 -3q-15 0 -22 14l-14 25q-15 17 -47 44q-16 -3 -39 -18q-8 -6 -39 -71h-16q-9 0 -13 9q10 62 29 91q12 20 36 42q31 27 48 23q27 -5 45 -32q11 -19 21 -39q18 -23 31 -23t36 25q19 21 60 81q4 1 8 1
q15 0 24.5 -12.5t8.5 -31.5z" />
    <glyph glyph-name="nonbreakingspace" unicode="&#xa0;" horiz-adv-x="1150" 
 />
    <glyph glyph-name="exclamdown" unicode="&#xa1;" horiz-adv-x="328" 
d="M243 610q0 -28 -19 -47.5t-46 -19.5q-26 0 -45 20t-19 48q0 29 19 49t45 20q27 0 46 -20t19 -49v-1zM290 -38h-231v39h59v405h-59q-40 0 -40 44t40 44h173v-493h58v-39z" />
    <glyph glyph-name="cent" unicode="&#xa2;" horiz-adv-x="363" 
d="M257 915q0 -54 -16 -131l-26 -128q-14 -14 -27 -14q-8 0 -15 5q-27 15 -27 38q0 12 13 43t10 48q10 28 19 73l14 76q9 10 21 10q20 0 34 -19v-1zM323 320v1q3 -24 -12 -41q-9 -10 -35 -25.5t-35 -25.5q-79 -27 -102 -28q-37 0 -61 28q-34 39 -34 100q0 38 34 164
q4 13 30 55q21 33 18 60q12 7 25 7q24 0 48 -20q21 -17 33 -40q2 -72 -19 -101q-8 -16 -19 -16v0l-32 15q-18 8 -26 -17q-10 -31 -10 -76q0 -34 6 -79q19 -22 52 -9q15 6 50 40q30 29 50 29q19 0 39 -21zM165 158q-16 -58 -33 -117q-18 -68 -24 -120q-13 -37 -42 -38
q-32 10 -32 50q0 12 5 44q11 29 25 95q13 63 27 94q7 24 30 24q34 0 43 -32h1z" />
    <glyph glyph-name="sterling" unicode="&#xa3;" horiz-adv-x="629" 
d="M616 391h-1q6 -31 6 -64q0 -96 -43 -190q-135 -129 -272 -129q-24 0 -49 4q-16 -3 -31 -3q-81 0 -185 99q-37 54 -37 142q0 84 32 144q58 109 141 177q101 82 210 74q84 -34 146 -100q68 -71 83 -154zM558 289q1 15 1 29q0 77 -37 141t-103 99q-13 0 -36.5 10t-36.5 10
q-12 0 -23 -6l-91 -33q-162 -137 -162 -280q0 -39 13 -79q18 -56 72 -79q40 -16 114 -17q60 -1 120 -1q170 79 168 207zM444 442q5 -11 5 -23q0 -30 -29 -48q-23 -14 -48 -1q-13 6 -17 22l-6 26q5 19 23 33.5t37 14.5q23 0 34 -24h1zM301 390q-23 -31 -54 -31
q-17 0 -33.5 15.5t-16.5 35.5q0 7 3 14q11 32 58 32q49 -34 43 -66zM444 251q-55 -71 -115 -96q-11 -5 -23 -5q-14 0 -34 8q-28 10 -34 11q-19 20 -38 39q-20 24 -19 48l23 43q9 3 16 3q17 0 25 -34q9 -37 32 -42q15 -11 29 -11q23 0 59.5 37.5t55.5 40.5q0 -1 16 -15
q9 -9 9 -17q0 -5 -2 -10z" />
    <glyph glyph-name="currency" unicode="&#xa4;" horiz-adv-x="558" 
d="M485 209h-102v142h-153v-351h-186v45q0 46 47 49l36 -1v321h-83v51q0 47 47 51h139v-64h188q67 -4 67 -63v-180z" />
    <glyph glyph-name="yen" unicode="&#xa5;" horiz-adv-x="548" 
d="M509 627l-185 -293v-46h85q50 0 50 -22t-50 -22h-85v-37h85q50 0 50 -22t-50 -22h-85v-69h55v-94h-213v45q0 46 48 49l29 -1v70l-85 2q-50 1 -50 21q0 21 50 21h85v37l-85 2q-50 1 -50 20q0 22 50 22h85v27h-64v35q0 24 15 39l-101 165l-47 -25l-18 30q-9 15 -9 28
q0 23 24 38l77 41l154 -255l163 257z" />
    <glyph glyph-name="section" unicode="&#xa7;" horiz-adv-x="629" 
d="M616 391h-1q6 -31 6 -64q0 -96 -43 -190q-135 -129 -272 -129q-24 0 -49 4q-16 -3 -31 -3q-81 0 -185 99q-37 54 -37 142q0 84 32 144q58 109 141 177q101 82 210 74q84 -34 146 -100q68 -71 83 -154zM558 289q1 15 1 29q0 77 -37 141t-103 99q-13 0 -36.5 10t-36.5 10
q-12 0 -23 -6l-91 -33q-162 -137 -162 -280q0 -39 13 -79q18 -56 72 -79q40 -16 114 -17q60 -1 120 -1q170 79 168 207zM444 442q5 -11 5 -23q0 -30 -29 -48q-23 -14 -48 -1q-13 6 -17 22l-6 26q5 19 23 33.5t37 14.5q23 0 34 -24h1zM301 390q-23 -31 -54 -31
q-17 0 -33.5 15.5t-16.5 35.5q0 7 3 14q11 32 58 32q49 -34 43 -66zM444 251q-55 -71 -115 -96q-11 -5 -23 -5q-14 0 -34 8q-28 10 -34 11q-19 20 -38 39q-20 24 -19 48l23 43q9 3 16 3q17 0 25 -34q9 -37 32 -42q15 -11 29 -11q23 0 59.5 37.5t55.5 40.5q0 -1 16 -15
q9 -9 9 -17q0 -5 -2 -10z" />
    <glyph glyph-name="dieresis" unicode="&#xa8;" horiz-adv-x="362" 
d="M316 595q4 -26 -16 -39q-19 -9 -38 -19q-23 2 -41 25q-2 3 -25 42q5 11 10 23t17 14q75 -8 93 -46zM135 634q8 -17 8 -37q0 -48 -40 -62q-8 -3 -16 -3q-30 0 -49 36q-3 12 -3 23q0 43 49 56q14 0 28 1q16 0 23 -14z" />
    <glyph glyph-name="copyright" unicode="&#xa9;" horiz-adv-x="442" 
d="M409 298q-6 -10 -6 -24v0q0 -3 2 -21q1 -13 -1.5 -22t-12.5 -18q-39 -95 -50 -112q-37 -59 -98 -66q-55 -6 -108 28q-49 32 -75 82q-14 47 -14 97q0 160 117 265q26 12 56 12q57 0 98 -36q29 -27 41 -40q22 -24 33 -47q-2 -4 5 -11l-5 -7q-36 39 -71 78q-48 43 -92 43
q-13 0 -27 -4q-108 -86 -123 -252q6 -115 92 -159q19 -6 38 -6q47 0 79 31l36 49q-2 0 -71 7q-42 5 -63 24q-28 25 -28 68q0 15 4 42q4 31 5 43q3 2 14 23q8 15 20 15q4 0 9 -2h25q0 -22 -16.5 -60t-16.5 -58q0 -18 8 -35q21 -19 54 -19q38 0 87 25q10 14 16 39q4 20 8 41
q-8 16 -18 49q29 -12 49 -62z" />
    <glyph glyph-name="ordfeminine" unicode="&#xaa;" horiz-adv-x="620" 
d="M535 191h-224v-49h156v-33h-154v-54h64l-107 -103l-109 103h63v54h-61v33h59v49h-113v-111h-20q-54 0 -58 59v127h192l-1 26q-78 1 -130 67q-49 62 -49 144q0 89 64 151t155 61t155 -63t64 -150q0 -75 -49 -135t-122 -74v-27h225q51 0 51 -37q0 -38 -51 -38zM371 503
q0 62 -32 105t-76 43q-45 0 -77 -43.5t-32 -104.5q0 -49 19 -89q20 -43 50 -47v104h87v-98q29 11 46 50q15 35 15 80z" />
    <glyph glyph-name="guillemotleft" unicode="&#xab;" horiz-adv-x="533" 
d="M495 113l-125 -125l-20 20l37 37l-65 64l-122 -121l-20 20l37 37l-183 181l37 35l146 145q12 12 26 12v0q21 0 31 -21q10 -20 -8 -38l-135 -133l135 -133l36 36l-98 97l36 35l145 146q11 11 25 11v0q22 0 33 -20q11 -22 -7 -39l-135 -133l135 -133l39 39z" />
    <glyph glyph-name="logicalnot" unicode="&#xac;" horiz-adv-x="531" 
d="M476 135q0 -37 -46 -37q-47 0 -47 37v183h-300v-56h-41v220h41v-55h393v-292z" />
    <glyph glyph-name="registered" unicode="&#xae;" horiz-adv-x="474" 
d="M452 281l-6 -6q6 -13 6 -33q0 -34 -18 -84q-19 -14 -44 -50t-38 -48q-26 -21 -60 -18q-18 -3 -37 -3q-96 0 -159 58q-76 70 -68 147q12 113 135 191q70 26 129 26q99 0 136 -75q12 -18 11.5 -52.5t12.5 -52.5zM415 281q-1 20 -22.5 53t-20.5 45q-32 26 -81 26
q-59 0 -121 -32q-81 -52 -98 -147q-1 -44 37 -76q36 -23 73 -46q29 -7 57 -7q79 0 115 49q-34 5 -79 21l-74 28q7 -17 7 -35q0 -22 -14 -32q-14 -1 -22 11.5t-15 24.5q-13 76 -13 78q0 8 1 15q0 15 -6 18q2 19 19 42l30 38q50 26 70 26q32 0 56.5 -25.5t20.5 -62.5
q-18 -42 -85 -49q18 -9 70 -26q47 -14 70 -29q9 18 25 92z" />
    <glyph glyph-name="macron" unicode="&#xaf;" horiz-adv-x="1150" 
 />
    <glyph glyph-name="degree" unicode="&#xb0;" horiz-adv-x="629" 
d="M616 391h-1q6 -31 6 -64q0 -96 -43 -190q-135 -129 -272 -129q-24 0 -49 4q-16 -3 -31 -3q-81 0 -185 99q-37 54 -37 142q0 84 32 144q58 109 141 177q101 82 210 74q84 -34 146 -100q68 -71 83 -154zM558 289q1 15 1 29q0 77 -37 141t-103 99q-13 0 -36.5 10t-36.5 10
q-12 0 -23 -6l-91 -33q-162 -137 -162 -280q0 -39 13 -79q18 -56 72 -79q40 -16 114 -17q60 -1 120 -1q170 79 168 207zM444 442q5 -11 5 -23q0 -30 -29 -48q-23 -14 -48 -1q-13 6 -17 22l-6 26q5 19 23 33.5t37 14.5q23 0 34 -24h1zM301 390q-23 -31 -54 -31
q-17 0 -33.5 15.5t-16.5 35.5q0 7 3 14q11 32 58 32q49 -34 43 -66zM444 251q-55 -71 -115 -96q-11 -5 -23 -5q-14 0 -34 8q-28 10 -34 11q-19 20 -38 39q-20 24 -19 48l23 43q9 3 16 3q17 0 25 -34q9 -37 32 -42q15 -11 29 -11q23 0 59.5 37.5t55.5 40.5q0 -1 16 -15
q9 -9 9 -17q0 -5 -2 -10z" />
    <glyph glyph-name="plusminus" unicode="&#xb1;" horiz-adv-x="588" 
d="M528 382h-198v-85h55v-23h-197v23h57v85h-154v-34h-40v150h40v-35h154v69h-56q-38 0 -38 23t37 23h142v-115h150l-1 35q-1 23 24 23t25 -23v-116zM509 113h-41v56h-325v-56q0 -37 -46 -37q-47 0 -47 37v127h459v-127z" />
    <glyph glyph-name="acute" unicode="&#xb4;" horiz-adv-x="262" 
d="M236 593q-69 -47 -94 -70q-86 -83 -87 -84q-10 2 -12.5 12.5t-5.5 19.5q36 49 72 99q18 21 89 78q18 0 29.5 -11.5t11.5 -28.5q0 -8 -3 -15z" />
    <glyph glyph-name="mu" unicode="&#xb5;" horiz-adv-x="744" 
d="M434 593v1q29 -29 29 -69q0 -47 -35.5 -78t-80.5 -31q-46 0 -76 31t-30 71q0 46 36 78q33 30 78 30q47 0 79 -33zM631 271l-549 1q-26 0 -41 14t-15 32q0 19 14.5 32.5t40.5 13.5h550q51 0 51 -46q0 -19 -13.5 -33t-37.5 -14zM569 186v1q29 -30 29 -70q0 -46 -35 -77
t-81 -31t-76 30t-30 71q0 47 36 79q33 30 78 30q47 0 79 -33zM314 185v1q29 -30 29 -69q0 -46 -37 -79q-33 -29 -78 -29q-46 0 -76 30.5t-30 70.5q0 47 36 79q33 29 77 29q47 0 79 -33zM412 576q-22 23 -57 23q-32 0 -56 -21q-27 -24 -27 -59q0 -29 20 -49q23 -23 58 -23
q32 0 55 20q27 24 27 59q0 30 -20 51v-1zM490 191q-32 0 -56 -21q-27 -24 -27 -59q0 -29 21 -51t56 -22q32 0 57.5 22.5t25.5 57.5q0 29 -21 51t-56 22zM235 189q-32 0 -56 -21q-27 -24 -27 -57q0 -29 22 -51t57 -22q31 0 54 20q27 24 27 58q0 29 -21 51t-56 22z" />
    <glyph glyph-name="paragraph" unicode="&#xb6;" horiz-adv-x="629" 
d="M616 391h-1q6 -31 6 -64q0 -96 -43 -190q-135 -129 -272 -129q-24 0 -49 4q-16 -3 -31 -3q-81 0 -185 99q-37 54 -37 142q0 84 32 144q58 109 141 177q101 82 210 74q84 -34 146 -100q68 -71 83 -154zM558 289q1 15 1 29q0 77 -37 141t-103 99q-13 0 -36.5 10t-36.5 10
q-12 0 -23 -6l-91 -33q-162 -137 -162 -280q0 -39 13 -79q18 -56 72 -79q40 -16 114 -17q60 -1 120 -1q170 79 168 207zM444 442q5 -11 5 -23q0 -30 -29 -48q-23 -14 -48 -1q-13 6 -17 22l-6 26q5 19 23 33.5t37 14.5q23 0 34 -24h1zM301 390q-23 -31 -54 -31
q-17 0 -33.5 15.5t-16.5 35.5q0 7 3 14q11 32 58 32q49 -34 43 -66zM444 251q-55 -71 -115 -96q-11 -5 -23 -5q-14 0 -34 8q-28 10 -34 11q-19 20 -38 39q-20 24 -19 48l23 43q9 3 16 3q17 0 25 -34q9 -37 32 -42q15 -11 29 -11q23 0 59.5 37.5t55.5 40.5q0 -1 16 -15
q9 -9 9 -17q0 -5 -2 -10z" />
    <glyph glyph-name="cedilla" unicode="&#xb8;" horiz-adv-x="340" 
d="M223 -57v1q4 -24 4 -46q0 -91 -71 -152q-10 -4 -19 -4q-21 0 -46 24q-3 6 -3 10q0 10 23 21q44 50 44 93q0 21 -11 48q-12 24 -23 48q15 20 33 20q28 0 69 -63z" />
    <glyph glyph-name="ordmasculine" unicode="&#xba;" horiz-adv-x="556" 
d="M495 620v1q0 -41 -50 -44h-223v-494h27q48 -4 48 -50v-33h-255v34q0 46 47 49l30 -1v495h-83v34q0 46 47 50h362q50 -3 50 -41z" />
    <glyph glyph-name="guillemotright" unicode="&#xbb;" horiz-adv-x="533" 
d="M495 226l-183 -181l38 -37l-20 -20l-123 121l-65 -64l38 -37l-20 -20l-126 125l20 19l39 -39l135 133l-135 133q-11 10 -11 24v0q0 21 21 31q21 11 39 -7l184 -181l-99 -97l36 -36l135 133l-137 132q-11 10 -11 23v0q0 22 21 33q23 11 41 -7z" />
    <glyph glyph-name="questiondown" unicode="&#xbf;" horiz-adv-x="467" 
d="M383 632q0 -24 -18 -41.5t-44 -17.5t-44.5 17t-18.5 42q0 23 18.5 40t44.5 17q25 0 43.5 -17t18.5 -40zM412 -8l-94 -1v28q-19 -11 -35 -19q-39 -20 -59 -23q-15 -2 -30 -2q-76 0 -127 55q-49 52 -49 127q0 107 66 175q55 57 140 71l42 7l1 77q0 20 14.5 33.5t34.5 13.5
h2q21 0 35.5 -14t14.5 -34v-60l12 2q9 1 16 1v0q41 0 36 -26q-5 -28 -52 -35l-139 -22q-48 -8 -81 -69q-27 -53 -27 -102q0 -45 15 -89q17 -53 44 -57q15 -2 28 -2q83 0 81 83q0 62 58 71h53v-189z" />
    <glyph glyph-name="Agrave" unicode="&#xc0;" horiz-adv-x="616" 
d="M627 -6q-12 -11 -26 -11t-25 11q-24 51 -66 177q-38 112 -71 175q-91 -18 -271 -56q-24 -52 -104 -276q-44 -3 -45 20q11 42 44 122t44 122q-5 4 -35 11q-22 6 -22 20q0 5 3 13q2 17 33 25q26 7 55 6q25 70 49 141q34 88 72 135q11 51 48 107q11 5 21 5q31 0 60 -59
l88 -256q37 14 51 14q22 0 23 -33q1 -26 -21 -41l-26 -14q16 -62 60 -180t61 -178zM426 407q-6 14 -41 131q-24 82 -55 125q-35 -42 -122 -292q43 -3 110 15q75 19 108 21zM369 763q-2 -9 -5 -19.5t-12 -12.5q-2 1 -88 84q-25 23 -94 70q-2 7 -2 15q0 17 11 28.5t29 11.5
q71 -57 89 -78q36 -50 72 -99z" />
    <glyph glyph-name="Aacute" unicode="&#xc1;" horiz-adv-x="616" 
d="M627 -6q-12 -11 -26 -11t-25 11q-24 51 -66 177q-38 112 -71 175q-91 -18 -271 -56q-24 -52 -104 -276q-44 -3 -45 20q11 42 44 122t44 122q-5 4 -35 11q-22 6 -22 20q0 5 3 13q2 17 33 25q26 7 55 6q25 70 49 141q34 88 72 135q11 51 48 107q11 5 21 5q31 0 60 -59
l88 -256q37 14 51 14q22 0 23 -33q1 -26 -21 -41l-26 -14q16 -62 60 -180t61 -178zM426 407q-6 14 -41 131q-24 82 -55 125q-35 -42 -122 -292q43 -3 110 15q75 19 108 21zM409 887q-69 -47 -94 -70q-86 -83 -87 -84q-10 2 -12.5 12.5t-5.5 19.5q36 49 72 99q18 21 89 78
q18 0 29.5 -11.5t11.5 -28.5q0 -8 -3 -15z" />
    <glyph glyph-name="Acircumflex" unicode="&#xc2;" horiz-adv-x="616" 
d="M627 -6q-12 -11 -26 -11t-25 11q-24 51 -66 177q-38 112 -71 175q-91 -18 -271 -56q-24 -52 -104 -276q-44 -3 -45 20q11 42 44 122t44 122q-5 4 -35 11q-22 6 -22 20q0 5 3 13q2 17 33 25q26 7 55 6q25 70 49 141q34 88 72 135q11 51 48 107q11 5 21 5q31 0 60 -59
l88 -256q37 14 51 14q22 0 23 -33q1 -26 -21 -41l-26 -14q16 -62 60 -180t61 -178zM426 407q-6 14 -41 131q-24 82 -55 125q-35 -42 -122 -292q43 -3 110 15q75 19 108 21zM453 833q6 -36 -18 -57q-31 24 -63 48q-37 28 -68 30q-13 -8 -43.5 -39t-51.5 -40q-13 -5 -23 -5
q-24 0 -23 26q2 41 55 81q20 21 40 41q17 16 28 20q17 7 50 -12q16 -4 59 -42q29 -25 58 -51z" />
    <glyph glyph-name="Atilde" unicode="&#xc3;" horiz-adv-x="616" 
d="M627 -6q-12 -11 -26 -11t-25 11q-24 51 -66 177q-38 112 -71 175q-91 -18 -271 -56q-24 -52 -104 -276q-44 -3 -45 20q11 42 44 122t44 122q-5 4 -35 11q-22 6 -22 20q0 5 3 13q2 17 33 25q26 7 55 6q25 70 49 141q34 88 72 135q11 51 48 107q11 5 21 5q31 0 60 -59
l88 -256q37 14 51 14q22 0 23 -33q1 -26 -21 -41l-26 -14q16 -62 60 -180t61 -178zM426 407q-6 14 -41 131q-24 82 -55 125q-35 -42 -122 -292q43 -3 110 15q75 19 108 21zM514 893q-48 -59 -64 -74q-5 -4 -39 -27t-37 -24q-10 -3 -17 -3q-15 0 -22 14l-14 25q-15 17 -47 44
q-16 -3 -39 -18q-8 -6 -39 -71h-16q-9 0 -13 9q10 62 29 91q12 20 36 42q31 27 48 23q27 -5 45 -32q11 -19 21 -39q18 -23 31 -23t36 25q19 21 60 81q4 1 8 1q15 0 24.5 -12.5t8.5 -31.5z" />
    <glyph glyph-name="Adieresis" unicode="&#xc4;" horiz-adv-x="616" 
d="M627 -6q-12 -11 -26 -11t-25 11q-24 51 -66 177q-38 112 -71 175q-91 -18 -271 -56q-24 -52 -104 -276q-44 -3 -45 20q11 42 44 122t44 122q-5 4 -35 11q-22 6 -22 20q0 5 3 13q2 17 33 25q26 7 55 6q25 70 49 141q34 88 72 135q11 51 48 107q11 5 21 5q31 0 60 -59
l88 -256q37 14 51 14q22 0 23 -33q1 -26 -21 -41l-26 -14q16 -62 60 -180t61 -178zM426 407q-6 14 -41 131q-24 82 -55 125q-35 -42 -122 -292q43 -3 110 15q75 19 108 21zM443 794q4 -26 -16 -39q-19 -9 -38 -19q-23 2 -41 25q-2 3 -25 42q5 11 10 23t17 14q75 -8 93 -46z
M262 833q8 -17 8 -37q0 -48 -40 -62q-8 -3 -16 -3q-30 0 -49 36q-3 12 -3 23q0 43 49 56q14 0 28 1q16 0 23 -14z" />
    <glyph glyph-name="Aring" unicode="&#xc5;" horiz-adv-x="509" 
d="M475 11q-11 -18 -30 -18q-11 0 -18 6q-15 74 -29 148q-20 83 -56 137q-61 -32 -133 -37q-18 -29 -44.5 -93.5t-44.5 -91.5q-28 -47 -68 -69q-6 0 -12.5 6.5l-11.5 11.5q6 12 68 123q41 74 59 126q-93 56 -109 180q17 166 133 219q44 27 98 27q98 0 150 -75q3 -13 21 -50
q15 -30 15 -50q0 -14 -6 -27q7 -8 12 -7q-6 -37 -32 -79l-52 -72q73 -146 90 -315zM409 484q7 16 7 32q0 22 -13 49q-12 23 -25 46l-54 30q-16 9 -31 9q-20 0 -54 -19.5t-54 -19.5q-37 -48 -50 -71q-23 -41 -23 -81q0 -53 8 -79q13 -44 53 -54l61 127q6 7 10 32
q4 22 21.5 30t30.5 8q28 0 38 -49q13 -58 27 -69q19 12 30 36q9 21 18 43zM306 339q2 5 2 11q0 11 -9 29t-11 26q-11 -16 -21 -42q-8 -21 -16 -43q4 -1 8 -1q24 0 47 20z" />
    <glyph glyph-name="AE" unicode="&#xc6;" horiz-adv-x="726" 
d="M705 66q-3 -28 -38 -40q-30 -10 -59 -20q-13 3 -26 3q-26 0 -61 -13q-54 -19 -58 -20q-42 46 -73 136q-45 131 -54 148q-25 -10 -80.5 -18.5t-79.5 -17.5q-42 -16 -64 -49q-15 -18 -41 -78q-22 -50 -49 -67q-30 19 -30 43q0 19 27 54q29 39 32 55l7 6q-33 28 -36 60
q15 10 40 15q22 5 44 9q14 22 70 133q41 83 80 121q26 26 68 31q7 -2 15 -2v0q1 0 43 6q27 5 45 -4q78 2 108 -25q2 -35 -24 -35q-8 0 -28.5 4t-30.5 4q-9 0 -24.5 -4.5t-23.5 -4.5v0q-39 0 -38 0q-21 -3 -30 -18q1 -31 12 -74q9 -35 18 -71q19 -7 40 -7v0q18 0 66 11
q42 11 70 7q-9 -45 -37 -53q-11 2 -25 -3q-22 -9 -23 -10q-11 3 -30 -2t-36 -9q16 -45 32 -89q18 -52 22 -93l24 -30q34 -2 93.5 8.5t86.5 10.5q30 0 56 -8zM318 327q-12 39 -37 109q-12 -24 -45 -70t-45 -70q15 -2 34 3l32 10q5 4 12 5v0h27q16 1 22 13z" />
    <glyph glyph-name="Ccedilla" unicode="&#xc7;" horiz-adv-x="651" 
d="M750 115q-3 -18 -31 -19.5t-30 -20.5q-218 -62 -423 -62q-71 0 -137 8q-46 17 -75 67q-25 46 -28 102q-6 158 156 289q164 99 284 99q27 0 54 -4l34 -47v-14q-29 3 -57 3q-234 0 -361 -165q-57 -90 -57 -157q0 -30 9 -58q62 -66 181 -66q39 0 109 8q78 9 108 10
q6 1 122 19q72 11 115 35zM310 -14v1q4 -24 4 -46q0 -91 -71 -152q-10 -4 -19 -4q-21 0 -46 24q-3 6 -3 10q0 10 23 21q44 50 44 93q0 21 -11 48q-12 24 -23 48q15 20 33 20q28 0 69 -63z" />
    <glyph glyph-name="Egrave" unicode="&#xc8;" 
d="M481 574q-23 -12 -59 -16q-31 -2 -63 -4q-52 -14 -104 -29q-60 -18 -90 -52q-3 -22 -9.5 -67.5t-10.5 -68.5q8 -13 19 -13q6 0 19 6.5t21 6.5q15 -1 31 -1v0q20 0 82 7q50 5 83 1q1 -4 6 -18q5 -10 5 -17q0 -10 -11 -19q-28 -6 -140 -17q-85 -9 -135 -29q-1 -3 -23 -58
q-15 -35 -15 -61q0 -14 3 -27q27 -13 61 -13q22 0 69 8.5t71 8.5q30 6 91 19.5t92 20.5q13 -6 13 -16q0 -6 -6.5 -19t-6.5 -19q-31 -18 -92 -24t-91 -23q-12 2 -25 2q-27 0 -78.5 -11.5t-74.5 -11.5q-48 0 -78 34q-4 22 -4 46q0 47 30 139t28 147q20 20 20 75v14v13
q0 44 11 62q16 26 63 24q11 7 45 11q30 4 43 16q8 -2 17 -2v0q2 0 63 12q39 8 62 -10h61q8 -8 7 -14l-7 -6zM351 682q-2 -9 -5 -19.5t-12 -12.5q-2 1 -88 84q-25 23 -94 70q-2 7 -2 15q0 17 11 28.5t29 11.5q71 -57 89 -78q36 -50 72 -99z" />
    <glyph glyph-name="Eacute" unicode="&#xc9;" 
d="M481 574q-23 -12 -59 -16q-31 -2 -63 -4q-52 -14 -104 -29q-60 -18 -90 -52q-3 -22 -9.5 -67.5t-10.5 -68.5q8 -13 19 -13q6 0 19 6.5t21 6.5q15 -1 31 -1v0q20 0 82 7q50 5 83 1q1 -4 6 -18q5 -10 5 -17q0 -10 -11 -19q-28 -6 -140 -17q-85 -9 -135 -29q-1 -3 -23 -58
q-15 -35 -15 -61q0 -14 3 -27q27 -13 61 -13q22 0 69 8.5t71 8.5q30 6 91 19.5t92 20.5q13 -6 13 -16q0 -6 -6.5 -19t-6.5 -19q-31 -18 -92 -24t-91 -23q-12 2 -25 2q-27 0 -78.5 -11.5t-74.5 -11.5q-48 0 -78 34q-4 22 -4 46q0 47 30 139t28 147q20 20 20 75v14v13
q0 44 11 62q16 26 63 24q11 7 45 11q30 4 43 16q8 -2 17 -2v0q2 0 63 12q39 8 62 -10h61q8 -8 7 -14l-7 -6zM351 773q-69 -47 -94 -70q-86 -83 -87 -84q-10 2 -12.5 12.5t-5.5 19.5q36 49 72 99q18 21 89 78q18 0 29.5 -11.5t11.5 -28.5q0 -8 -3 -15z" />
    <glyph glyph-name="Ecircumflex" unicode="&#xca;" 
d="M481 574q-23 -12 -59 -16q-31 -2 -63 -4q-52 -14 -104 -29q-60 -18 -90 -52q-3 -22 -9.5 -67.5t-10.5 -68.5q8 -13 19 -13q6 0 19 6.5t21 6.5q15 -1 31 -1v0q20 0 82 7q50 5 83 1q1 -4 6 -18q5 -10 5 -17q0 -10 -11 -19q-28 -6 -140 -17q-85 -9 -135 -29q-1 -3 -23 -58
q-15 -35 -15 -61q0 -14 3 -27q27 -13 61 -13q22 0 69 8.5t71 8.5q30 6 91 19.5t92 20.5q13 -6 13 -16q0 -6 -6.5 -19t-6.5 -19q-31 -18 -92 -24t-91 -23q-12 2 -25 2q-27 0 -78.5 -11.5t-74.5 -11.5q-48 0 -78 34q-4 22 -4 46q0 47 30 139t28 147q20 20 20 75v14v13
q0 44 11 62q16 26 63 24q11 7 45 11q30 4 43 16q8 -2 17 -2v0q2 0 63 12q39 8 62 -10h61q8 -8 7 -14l-7 -6zM372 706q6 -36 -18 -57q-31 24 -63 48q-37 28 -68 30q-13 -8 -43.5 -39t-51.5 -40q-13 -5 -23 -5q-24 0 -23 26q2 41 55 81q20 21 40 41q17 16 28 20q17 7 50 -12
q16 -4 59 -42q29 -25 58 -51z" />
    <glyph glyph-name="Edieresis" unicode="&#xcb;" 
d="M481 574q-23 -12 -59 -16q-31 -2 -63 -4q-52 -14 -104 -29q-60 -18 -90 -52q-3 -22 -9.5 -67.5t-10.5 -68.5q8 -13 19 -13q6 0 19 6.5t21 6.5q15 -1 31 -1v0q20 0 82 7q50 5 83 1q1 -4 6 -18q5 -10 5 -17q0 -10 -11 -19q-28 -6 -140 -17q-85 -9 -135 -29q-1 -3 -23 -58
q-15 -35 -15 -61q0 -14 3 -27q27 -13 61 -13q22 0 69 8.5t71 8.5q30 6 91 19.5t92 20.5q13 -6 13 -16q0 -6 -6.5 -19t-6.5 -19q-31 -18 -92 -24t-91 -23q-12 2 -25 2q-27 0 -78.5 -11.5t-74.5 -11.5q-48 0 -78 34q-4 22 -4 46q0 47 30 139t28 147q20 20 20 75v14v13
q0 44 11 62q16 26 63 24q11 7 45 11q30 4 43 16q8 -2 17 -2v0q2 0 63 12q39 8 62 -10h61q8 -8 7 -14l-7 -6zM402 733q4 -26 -16 -39q-19 -9 -38 -19q-23 2 -41 25q-2 3 -25 42q5 11 10 23t17 14q75 -8 93 -46zM221 772q8 -17 8 -37q0 -48 -40 -62q-8 -3 -16 -3q-30 0 -49 36
q-3 12 -3 23q0 43 49 56q14 0 28 1q16 0 23 -14z" />
    <glyph glyph-name="Igrave" unicode="&#xcc;" horiz-adv-x="327" 
d="M258 708q-2 -9 -5 -19.5t-12 -12.5q-2 2 -88 84q-25 24 -94 70q-2 7 -2 15q0 17 11 28.5t29 11.5q71 -57 89 -78q36 -50 72 -99zM202 0q-6 -1 -17.5 -13.5t-18.5 -12.5t-14 14q-16 52 -16 120v0q0 27 8 138q7 87 1 143q-11 62 -11 116q0 69 18 109q9 5 15 5q15 0 23 -24
q2 -4 12 -46q9 -130 9 -275q0 -144 -9 -274z" />
    <glyph glyph-name="Iacute" unicode="&#xcd;" horiz-adv-x="327" 
d="M274 837q-69 -46 -93 -70q-86 -83 -88 -84q-10 2 -12.5 12.5t-4.5 19.5q35 49 71 99q18 21 90 78q18 0 29 -11.5t11 -28.5q0 -8 -3 -15zM202 0q-6 -1 -17.5 -13.5t-18.5 -12.5t-14 14q-16 52 -16 120v0q0 27 8 138q7 87 1 143q-11 62 -11 116q0 69 18 109q9 5 15 5
q15 0 23 -24q2 -4 12 -46q9 -130 9 -275q0 -144 -9 -274z" />
    <glyph glyph-name="Icircumflex" unicode="&#xce;" horiz-adv-x="327" 
d="M281 738q6 -36 -17 -57q-32 24 -63 48q-38 28 -69 30q-13 -8 -43 -39t-52 -40q-12 -5 -22 -5q-24 0 -23 26q2 41 54 81l41 41q17 16 27 20q18 7 50 -12q17 -4 60 -42q29 -25 57 -51zM202 0q-6 -1 -17.5 -13.5t-18.5 -12.5t-14 14q-16 52 -16 120v0q0 27 8 138q7 87 1 143
q-11 62 -11 116q0 69 18 109q9 5 15 5q15 0 23 -24q2 -4 12 -46q9 -130 9 -275q0 -144 -9 -274z" />
    <glyph glyph-name="Idieresis" unicode="&#xcf;" horiz-adv-x="327" 
d="M297 778q4 -26 -16 -39q-19 -9 -38 -19q-23 2 -41 25q-2 3 -25 42q4 11 9.5 23t17.5 14q75 -8 93 -46zM116 817q8 -17 8 -37q0 -48 -40 -62q-8 -3 -16 -3q-30 0 -49 36q-3 12 -3 22q0 44 49 57q14 0 28 1q16 0 23 -14zM202 0q-6 -1 -17.5 -13.5t-18.5 -12.5t-14 14
q-16 52 -16 120v0q0 27 8 138q7 87 1 143q-11 62 -11 116q0 69 18 109q9 5 15 5q15 0 23 -24q2 -4 12 -46q9 -130 9 -275q0 -144 -9 -274z" />
    <glyph glyph-name="Ntilde" unicode="&#xd1;" horiz-adv-x="441" 
d="M428 32q-5 0 -16.5 -6.5t-17.5 -6.5q-7 0 -13 7q-20 12 -25 46q-8 54 -9 55q-53 50 -122 153q-74 109 -115 151q-2 -22 -2 -49v0q0 -30 7 -128q6 -80 2 -127q7 -19 7 -42q0 -74 -34 -74q-8 0 -17 6q-15 9 -17 9q2 41 2 84q0 179 -36 470q9 2 18 2q37 0 74 -46
q28 -39 57 -78q12 -33 74 -115q1 -1 37 -57q22 -35 44 -51l14 27q1 45 -6 130q-8 91 -8 132q0 93 28 157q6 3 10 3q8 0 18.5 -11t18.5 -12q-1 -31 -8 -102q-6 -66 -6 -100q0 -42 7 -75q-2 -11 -2 -25v0q0 -4 7 -74q5 -47 -5 -77q-3 -8 -3 -17v0q0 -14 26 -59q19 -33 -3 -59z
M369 759q-48 -59 -64 -74q-5 -4 -39 -27t-37 -24q-10 -3 -17 -3q-15 0 -22 14l-14 25q-15 17 -47 44q-16 -3 -39 -18q-8 -6 -39 -71h-16q-9 0 -13 9q10 62 29 91q12 20 36 42q31 27 48 23q27 -5 45 -32q11 -19 21 -39q18 -23 31 -23t36 25q19 21 60 81q4 1 8 1
q15 0 24.5 -12.5t8.5 -31.5z" />
    <glyph glyph-name="Ograve" unicode="&#xd2;" horiz-adv-x="499" 
d="M496 392q3 -127 -80 -269q-90 -155 -203 -168q-35 13 -71 26q-39 18 -49 50q-41 34 -62 129q-18 79 -18 180q0 81 11 133q15 72 69 110q81 58 138 58q23 0 45 -7q42 -3 87 -48q58 -60 69 -66q1 -2 36 -60q23 -39 28 -68zM435 366q0 51 -24 97q-5 -17 -10 -33
q-6 -20 -18 -31q-35 -2 -57 13q-2 15 8 45t10 43q0 33 -37 64t-72 31q-8 0 -16 -2q-81 -21 -115 -83q-29 -51 -34 -147q-6 -95 22 -215q18 -76 70 -114q25 -19 49 -19q26 0 50 21q14 16 44 39q61 88 87 139q43 84 43 152zM336 676q-2 -9 -5 -19.5t-12 -12.5q-2 1 -88 84
q-25 23 -94 70q-2 7 -2 15q0 17 11 28.5t29 11.5q71 -57 89 -78q36 -50 72 -99z" />
    <glyph glyph-name="Oacute" unicode="&#xd3;" horiz-adv-x="499" 
d="M496 392q3 -127 -80 -269q-90 -155 -203 -168q-35 13 -71 26q-39 18 -49 50q-41 34 -62 129q-18 79 -18 180q0 81 11 133q15 72 69 110q81 58 138 58q23 0 45 -7q42 -3 87 -48q58 -60 69 -66q1 -2 36 -60q23 -39 28 -68zM435 366q0 51 -24 97q-5 -17 -10 -33
q-6 -20 -18 -31q-35 -2 -57 13q-2 15 8 45t10 43q0 33 -37 64t-72 31q-8 0 -16 -2q-81 -21 -115 -83q-29 -51 -34 -147q-6 -95 22 -215q18 -76 70 -114q25 -19 49 -19q26 0 50 21q14 16 44 39q61 88 87 139q43 84 43 152zM372 803q-69 -47 -94 -70q-86 -83 -87 -84
q-10 2 -12.5 12.5t-5.5 19.5q36 49 72 99q18 21 89 78q18 0 29.5 -11.5t11.5 -28.5q0 -8 -3 -15z" />
    <glyph glyph-name="Ocircumflex" unicode="&#xd4;" horiz-adv-x="499" 
d="M496 392q3 -127 -80 -269q-90 -155 -203 -168q-35 13 -71 26q-39 18 -49 50q-41 34 -62 129q-18 79 -18 180q0 81 11 133q15 72 69 110q81 58 138 58q23 0 45 -7q42 -3 87 -48q58 -60 69 -66q1 -2 36 -60q23 -39 28 -68zM435 366q0 51 -24 97q-5 -17 -10 -33
q-6 -20 -18 -31q-35 -2 -57 13q-2 15 8 45t10 43q0 33 -37 64t-72 31q-8 0 -16 -2q-81 -21 -115 -83q-29 -51 -34 -147q-6 -95 22 -215q18 -76 70 -114q25 -19 49 -19q26 0 50 21q14 16 44 39q61 88 87 139q43 84 43 152zM361 678q6 -36 -18 -57q-31 24 -63 48
q-37 28 -68 30q-13 -8 -43.5 -39t-51.5 -40q-13 -5 -23 -5q-24 0 -23 26q2 41 55 81q20 21 40 41q17 16 28 20q17 7 50 -12q16 -4 59 -42q29 -25 58 -51z" />
    <glyph glyph-name="Otilde" unicode="&#xd5;" horiz-adv-x="499" 
d="M496 392q3 -127 -80 -269q-90 -155 -203 -168q-35 13 -71 26q-39 18 -49 50q-41 34 -62 129q-18 79 -18 180q0 81 11 133q15 72 69 110q81 58 138 58q23 0 45 -7q42 -3 87 -48q58 -60 69 -66q1 -2 36 -60q23 -39 28 -68zM435 366q0 51 -24 97q-5 -17 -10 -33
q-6 -20 -18 -31q-35 -2 -57 13q-2 15 8 45t10 43q0 33 -37 64t-72 31q-8 0 -16 -2q-81 -21 -115 -83q-29 -51 -34 -147q-6 -95 22 -215q18 -76 70 -114q25 -19 49 -19q26 0 50 21q14 16 44 39q61 88 87 139q43 84 43 152zM428 797q-48 -59 -64 -74q-5 -4 -39 -27t-37 -24
q-10 -3 -17 -3q-15 0 -22 14l-14 25q-15 17 -47 44q-16 -3 -39 -18q-8 -6 -39 -71h-16q-9 0 -13 9q10 62 29 91q12 20 36 42q31 27 48 23q27 -5 45 -32q11 -19 21 -39q18 -23 31 -23t36 25q19 21 60 81q4 1 8 1q15 0 24.5 -12.5t8.5 -31.5z" />
    <glyph glyph-name="Odieresis" unicode="&#xd6;" horiz-adv-x="499" 
d="M496 392q3 -127 -80 -269q-90 -155 -203 -168q-35 13 -71 26q-39 18 -49 50q-41 34 -62 129q-18 79 -18 180q0 81 11 133q15 72 69 110q81 58 138 58q23 0 45 -7q42 -3 87 -48q58 -60 69 -66q1 -2 36 -60q23 -39 28 -68zM435 366q0 51 -24 97q-5 -17 -10 -33
q-6 -20 -18 -31q-35 -2 -57 13q-2 15 8 45t10 43q0 33 -37 64t-72 31q-8 0 -16 -2q-81 -21 -115 -83q-29 -51 -34 -147q-6 -95 22 -215q18 -76 70 -114q25 -19 49 -19q26 0 50 21q14 16 44 39q61 88 87 139q43 84 43 152zM367 721q4 -26 -16 -39q-19 -9 -38 -19
q-23 2 -41 25q-2 3 -25 42q5 11 10 23t17 14q75 -8 93 -46zM186 760q8 -17 8 -37q0 -48 -40 -62q-8 -3 -16 -3q-30 0 -49 36q-3 12 -3 23q0 43 49 56q14 0 28 1q16 0 23 -14z" />
    <glyph glyph-name="Oslash" unicode="&#xd8;" horiz-adv-x="535" 
d="M522 288v-38q0 -28 -7 -41q-45 -94 -109 -152q-79 -72 -169 -72q-2 7 -11 7q-16 -1 -13 -1l-6 -6l-6 6q-8 -3 -17 -3q-18 0 -46 11q-35 14 -46 16q-79 41 -79 167q0 40 12 130q73 201 188 242q16 -1 46.5 2t44.5 3q24 0 42 -5l32 70q19 42 52 50l19 -18q-3 -23 -21 -56
q-23 -41 -27 -53q32 -23 43 -37q18 -24 17 -53q-21 -18 -24 -18q-8 8 -17 34q-8 23 -19 32q-28 -23 -49 -88q-23 -68 -49 -93q-9 -3 -18 2t-17 10q7 37 66 187q-29 8 -52 8q-30 0 -45 -13q-30 -2 -61 -34l-48 -58q-61 -85 -61 -210q0 -77 25 -140q58 -44 132 -44q28 0 55 7
q61 15 116 81q32 38 78 120q7 77 7 82q0 48 -19 74q7 7 6 13q27 -15 37 -54q17 -65 18 -67z" />
    <glyph glyph-name="Ugrave" unicode="&#xd9;" 
d="M478 224q-23 -7 -33.5 -42t-27.5 -46q-38 -102 -202 -169q-48 0 -92 33q-41 29 -64 75q-31 61 -31 160q0 69 18 185q4 25 22 65q20 45 25 63q17 3 30.5 -5t16.5 -22q-3 -22 -29 -128q-19 -78 -19 -128q0 -14 1 -28q-1 -10 -1 -22q0 -20 5 -55q8 -46 9 -58
q23 -22 46.5 -43t55.5 -18q90 25 160 119q64 85 83 185q-6 62 -11 123q-11 70 -50 107q12 11 23 11q17 0 35 -30l24 -48q22 -57 22 -142q0 -76 -16 -142zM320 627q-2 -9 -5 -19.5t-12 -12.5q-2 1 -88 84q-25 23 -94 70q-2 7 -2 15q0 17 11 28.5t29 11.5q71 -57 89 -78
q36 -50 72 -99z" />
    <glyph glyph-name="Uacute" unicode="&#xda;" 
d="M478 224q-23 -7 -33.5 -42t-27.5 -46q-38 -102 -202 -169q-48 0 -92 33q-41 29 -64 75q-31 61 -31 160q0 69 18 185q4 25 22 65q20 45 25 63q17 3 30.5 -5t16.5 -22q-3 -22 -29 -128q-19 -78 -19 -128q0 -14 1 -28q-1 -10 -1 -22q0 -20 5 -55q8 -46 9 -58
q23 -22 46.5 -43t55.5 -18q90 25 160 119q64 85 83 185q-6 62 -11 123q-11 70 -50 107q12 11 23 11q17 0 35 -30l24 -48q22 -57 22 -142q0 -76 -16 -142zM360 738q-69 -47 -94 -70q-86 -83 -87 -84q-10 2 -12.5 12.5t-5.5 19.5q36 49 72 99q18 21 89 78q18 0 29.5 -11.5
t11.5 -28.5q0 -8 -3 -15z" />
    <glyph glyph-name="Ucircumflex" unicode="&#xdb;" 
d="M478 224q-23 -7 -33.5 -42t-27.5 -46q-38 -102 -202 -169q-48 0 -92 33q-41 29 -64 75q-31 61 -31 160q0 69 18 185q4 25 22 65q20 45 25 63q17 3 30.5 -5t16.5 -22q-3 -22 -29 -128q-19 -78 -19 -128q0 -14 1 -28q-1 -10 -1 -22q0 -20 5 -55q8 -46 9 -58
q23 -22 46.5 -43t55.5 -18q90 25 160 119q64 85 83 185q-6 62 -11 123q-11 70 -50 107q12 11 23 11q17 0 35 -30l24 -48q22 -57 22 -142q0 -76 -16 -142zM384 694q6 -36 -18 -57q-31 24 -63 48q-37 28 -68 30q-13 -8 -43.5 -39t-51.5 -40q-13 -5 -23 -5q-24 0 -23 26
q2 41 55 81q20 21 40 41q17 16 28 20q17 7 50 -12q16 -4 59 -42q29 -25 58 -51z" />
    <glyph glyph-name="Udieresis" unicode="&#xdc;" 
d="M478 224q-23 -7 -33.5 -42t-27.5 -46q-38 -102 -202 -169q-48 0 -92 33q-41 29 -64 75q-31 61 -31 160q0 69 18 185q4 25 22 65q20 45 25 63q17 3 30.5 -5t16.5 -22q-3 -22 -29 -128q-19 -78 -19 -128q0 -14 1 -28q-1 -10 -1 -22q0 -20 5 -55q8 -46 9 -58
q23 -22 46.5 -43t55.5 -18q90 25 160 119q64 85 83 185q-6 62 -11 123q-11 70 -50 107q12 11 23 11q17 0 35 -30l24 -48q22 -57 22 -142q0 -76 -16 -142zM407 661q4 -26 -16 -39q-19 -9 -38 -19q-23 2 -41 25q-2 3 -25 42q5 11 10 23t17 14q75 -8 93 -46zM226 700
q8 -17 8 -37q0 -48 -40 -62q-8 -3 -16 -3q-30 0 -49 36q-3 12 -3 23q0 43 49 56q14 0 28 1q16 0 23 -14z" />
    <glyph glyph-name="germandbls" unicode="&#xdf;" horiz-adv-x="491" 
d="M467 212q-16 -57 -30 -84q-22 -44 -60 -71q-55 -22 -121 -22q-73 0 -117 28q-17 16 -17 42q0 13 5 23q59 -33 130 -33q51 0 87 20q75 54 79 128q-37 85 -91 98q-33 -2 -91 -12q-61 -12 -89 -14q-25 23 -20 58q46 -6 130 46q95 60 89 127q-43 33 -103 33q-38 0 -70 -14
q-33 -19 -44 -33q-26 -30 -22 -79q-1 -177 -23 -330q-30 -209 -89 -266q-5 -2 -10 -2q-13 0 -21 16q-12 21 -15 24q56 51 76 188q2 19 15 220v105q1 70 16 115q20 61 71 95q49 12 98 12q87 0 140 -38q26 -31 32 -104q-6 -17 -32 -44.5t-31 -39.5q55 -22 90 -78
q32 -51 38 -114z" />
    <glyph glyph-name="agrave" unicode="&#xe0;" horiz-adv-x="363" 
d="M420 37q-19 -38 -74 -38q-49 0 -85 56q1 6 -6 13q-27 -26 -54 -53q-32 -27 -63 -33q-82 27 -104 91q-4 22 -4 43q0 137 127 246q12 10 56 25q23 1 44.5 -15.5t28.5 -40.5q5 -6 6.5 -27t11.5 -27q-1 -10 -8 -63q-6 -42 -6 -67q0 -64 32 -98q9 -6 19 -6v0q13 0 35 12.5
t29 11.5q12 -1 15 -30zM249 319q-3 2 -11 11t-14 9q-3 0 -6 -1q-136 -99 -136 -227q0 -12 2 -25q19 -45 45 -45q7 0 15 3q64 42 84 122q10 77 21 153zM283 492q-2 -9 -5 -19.5t-12 -12.5q-2 1 -88 84q-25 23 -94 70q-2 7 -2 15q0 17 11 28.5t29 11.5q71 -57 89 -78
q36 -50 72 -99z" />
    <glyph glyph-name="aacute" unicode="&#xe1;" horiz-adv-x="363" 
d="M420 37q-19 -38 -74 -38q-49 0 -85 56q1 6 -6 13q-27 -26 -54 -53q-32 -27 -63 -33q-82 27 -104 91q-4 22 -4 43q0 137 127 246q12 10 56 25q23 1 44.5 -15.5t28.5 -40.5q5 -6 6.5 -27t11.5 -27q-1 -10 -8 -63q-6 -42 -6 -67q0 -64 32 -98q9 -6 19 -6v0q13 0 35 12.5
t29 11.5q12 -1 15 -30zM249 319q-3 2 -11 11t-14 9q-3 0 -6 -1q-136 -99 -136 -227q0 -12 2 -25q19 -45 45 -45q7 0 15 3q64 42 84 122q10 77 21 153zM320 607q-69 -47 -94 -70q-86 -83 -87 -84q-10 2 -12.5 12.5t-5.5 19.5q36 49 72 99q18 21 89 78q18 0 29.5 -11.5
t11.5 -28.5q0 -8 -3 -15z" />
    <glyph glyph-name="acircumflex" unicode="&#xe2;" horiz-adv-x="363" 
d="M420 37q-19 -38 -74 -38q-49 0 -85 56q1 6 -6 13q-27 -26 -54 -53q-32 -27 -63 -33q-82 27 -104 91q-4 22 -4 43q0 137 127 246q12 10 56 25q23 1 44.5 -15.5t28.5 -40.5q5 -6 6.5 -27t11.5 -27q-1 -10 -8 -63q-6 -42 -6 -67q0 -64 32 -98q9 -6 19 -6v0q13 0 35 12.5
t29 11.5q12 -1 15 -30zM249 319q-3 2 -11 11t-14 9q-3 0 -6 -1q-136 -99 -136 -227q0 -12 2 -25q19 -45 45 -45q7 0 15 3q64 42 84 122q10 77 21 153zM334 525q6 -36 -18 -57q-31 24 -63 48q-37 28 -68 30q-13 -8 -43.5 -39t-51.5 -40q-13 -5 -23 -5q-24 0 -23 26
q2 41 55 81q20 21 40 41q17 16 28 20q17 7 50 -12q16 -4 59 -42q29 -25 58 -51z" />
    <glyph glyph-name="atilde" unicode="&#xe3;" horiz-adv-x="363" 
d="M420 37q-19 -38 -74 -38q-49 0 -85 56q1 6 -6 13q-27 -26 -54 -53q-32 -27 -63 -33q-82 27 -104 91q-4 22 -4 43q0 137 127 246q12 10 56 25q23 1 44.5 -15.5t28.5 -40.5q5 -6 6.5 -27t11.5 -27q-1 -10 -8 -63q-6 -42 -6 -67q0 -64 32 -98q9 -6 19 -6v0q13 0 35 12.5
t29 11.5q12 -1 15 -30zM249 319q-3 2 -11 11t-14 9q-3 0 -6 -1q-136 -99 -136 -227q0 -12 2 -25q19 -45 45 -45q7 0 15 3q64 42 84 122q10 77 21 153zM373 598q-48 -59 -64 -74q-5 -4 -39 -27t-37 -24q-10 -3 -17 -3q-15 0 -22 14l-14 25q-15 17 -47 44q-16 -3 -39 -18
q-8 -6 -39 -71h-16q-9 0 -13 9q10 62 29 91q12 20 36 42q31 27 48 23q27 -5 45 -32q11 -19 21 -39q18 -23 31 -23t36 25q19 21 60 81q4 1 8 1q15 0 24.5 -12.5t8.5 -31.5z" />
    <glyph glyph-name="adieresis" unicode="&#xe4;" horiz-adv-x="363" 
d="M420 37q-19 -38 -74 -38q-49 0 -85 56q1 6 -6 13q-27 -26 -54 -53q-32 -27 -63 -33q-82 27 -104 91q-4 22 -4 43q0 137 127 246q12 10 56 25q23 1 44.5 -15.5t28.5 -40.5q5 -6 6.5 -27t11.5 -27q-1 -10 -8 -63q-6 -42 -6 -67q0 -64 32 -98q9 -6 19 -6v0q13 0 35 12.5
t29 11.5q12 -1 15 -30zM249 319q-3 2 -11 11t-14 9q-3 0 -6 -1q-136 -99 -136 -227q0 -12 2 -25q19 -45 45 -45q7 0 15 3q64 42 84 122q10 77 21 153zM335 567q4 -26 -16 -39q-19 -9 -38 -19q-23 2 -41 25q-2 3 -25 42q5 11 10 23t17 14q75 -8 93 -46zM154 606q8 -17 8 -37
q0 -48 -40 -62q-8 -3 -16 -3q-30 0 -49 36q-3 12 -3 23q0 43 49 56q14 0 28 1q16 0 23 -14z" />
    <glyph glyph-name="aring" unicode="&#xe5;" horiz-adv-x="363" 
d="M420 37q-19 -38 -74 -38q-49 0 -85 56q1 6 -6 13q-27 -26 -54 -53q-32 -27 -63 -33q-82 27 -104 91q-4 22 -4 43q0 137 127 246q12 10 56 25q23 1 44.5 -15.5t28.5 -40.5q5 -6 6.5 -27t11.5 -27q-1 -10 -8 -63q-6 -42 -6 -67q0 -64 32 -98q9 -6 19 -6v0q13 0 35 12.5
t29 11.5q12 -1 15 -30zM249 319q-3 2 -11 11t-14 9q-3 0 -6 -1q-136 -99 -136 -227q0 -12 2 -25q19 -45 45 -45q7 0 15 3q64 42 84 122q10 77 21 153zM321 533h-24q0 17 -6 20l-10 -41q-9 -23 -28 -33q-39 -21 -82 -21q-44 0 -83 21q-21 15 -42 61q-2 9 -2 18q0 49 39.5 83
t89.5 34q19 0 38 -6q84 -31 110 -80q17 -31 0 -56zM291 553v24h-7q-40 52 -93 52q-12 0 -23 -3q-30 -7 -62 -55q-6 -8 -6 -17q0 -22 19.5 -31t40.5 -9q46 0 118 50q8 -8 6 -11h7z" />
    <glyph glyph-name="ae" unicode="&#xe6;" horiz-adv-x="645" 
d="M580 319q1 -6 -3.5 -10.5t-9.5 -7.5q-93 2 -129 -26q-16 1 -25 13l-18 24q25 47 111 49l46 -10q26 -8 28 -32zM591 226q-2 -34 -49 -44q-61 -13 -73 -23q-33 15 -33 43q0 6 2 12q71 37 103 37t50 -25zM616 86q3 -21 -12 -31q-73 -16 -84 -18q-48 -12 -82 -25
q-10 10 -19.5 21t-10.5 22q10 29 52 34q52 6 64 15q6 -2 14 -2q6 0 19.5 1.5t20.5 1.5q27 0 38 -19zM377 110q5 -33 -28 -44q-45 -14 -52 -23q-3 -1 -76 -19q-48 -12 -79 -12q-40 0 -71 18q-43 48 -44 92q-2 66 62 104q52 25 110 19q13 8 27 8q12 0 34.5 -8t34.5 -8
q14 0 27 8q-13 44 -98 67q-6 3 -14 3v0q-18 0 -53.5 -23t-45.5 -22q-19 2 -16 55q45 45 118 45q57 0 91 -33q63 -64 73 -160q-11 -5 -24 -5q-17 0 -58 16t-65 14q-37 2 -104 -25q-20 -15 -39 -30q-21 -21 -16 -43q37 -32 85 -32v0q31 0 110 24q71 21 111 14z" />
    <glyph glyph-name="ccedilla" unicode="&#xe7;" horiz-adv-x="291" 
d="M280 135q-28 -50 -55 -100q-35 -56 -86 -60q-49 -3 -86 56q-33 93 -33 182q0 145 88 229q18 7 37 7q32 0 58.5 -19t33.5 -50q6 -13 6 -54l-12 -13q-14 27 -27 54q-16 31 -41 44q-103 -80 -103 -203q0 -27 6 -55q18 -95 60 -129q40 12 74 62q43 65 61 80zM223 -57v1
q4 -24 4 -46q0 -91 -71 -152q-10 -4 -19 -4q-21 0 -46 24q-3 6 -3 10q0 10 23 21q44 50 44 93q0 21 -11 48q-12 24 -23 48q15 20 33 20q28 0 69 -63z" />
    <glyph glyph-name="egrave" unicode="&#xe8;" horiz-adv-x="287" 
d="M198 265q-35 -37 -91 -37q-20 0 -38 6q-8 -65 31 -178q14 -18 30 -18q8 0 14 6q19 11 49 57q25 37 55 41q-6 -48 -35 -92.5t-69 -67.5q-65 13 -86.5 56.5t-32.5 84.5q-17 64 -14 136q4 129 78 208q21 32 61 32t72.5 -36.5t32.5 -78.5q0 -60 -57 -119zM193 400
q-6 14 -12 27q-9 16 -24 16q-33 0 -57 -48.5t-24 -99.5q6 -6 20 -6h23q66 41 74 111zM242 546q-2 -9 -5 -19.5t-12 -12.5q-2 1 -88 84q-25 23 -94 70q-2 7 -2 15q0 17 11 28.5t29 11.5q71 -57 89 -78q36 -50 72 -99z" />
    <glyph glyph-name="eacute" unicode="&#xe9;" horiz-adv-x="287" 
d="M198 265q-35 -37 -91 -37q-20 0 -38 6q-8 -65 31 -178q14 -18 30 -18q8 0 14 6q19 11 49 57q25 37 55 41q-6 -48 -35 -92.5t-69 -67.5q-65 13 -86.5 56.5t-32.5 84.5q-17 64 -14 136q4 129 78 208q21 32 61 32t72.5 -36.5t32.5 -78.5q0 -60 -57 -119zM193 400
q-6 14 -12 27q-9 16 -24 16q-33 0 -57 -48.5t-24 -99.5q6 -6 20 -6h23q66 41 74 111zM239 671q-69 -47 -94 -70q-86 -83 -87 -84q-10 2 -12.5 12.5t-5.5 19.5q36 49 72 99q18 21 89 78q18 0 29.5 -11.5t11.5 -28.5q0 -8 -3 -15z" />
    <glyph glyph-name="ecircumflex" unicode="&#xea;" horiz-adv-x="287" 
d="M198 265q-35 -37 -91 -37q-20 0 -38 6q-8 -65 31 -178q14 -18 30 -18q8 0 14 6q19 11 49 57q25 37 55 41q-6 -48 -35 -92.5t-69 -67.5q-65 13 -86.5 56.5t-32.5 84.5q-17 64 -14 136q4 129 78 208q21 32 61 32t72.5 -36.5t32.5 -78.5q0 -60 -57 -119zM193 400
q-6 14 -12 27q-9 16 -24 16q-33 0 -57 -48.5t-24 -99.5q6 -6 20 -6h23q66 41 74 111zM288 598q6 -36 -18 -57q-31 24 -63 48q-37 28 -68 30q-13 -8 -43.5 -39t-51.5 -40q-13 -5 -23 -5q-24 0 -23 26q2 41 55 81q20 21 40 41q17 16 28 20q17 7 50 -12q16 -4 59 -42
q29 -25 58 -51z" />
    <glyph glyph-name="edieresis" unicode="&#xeb;" horiz-adv-x="287" 
d="M198 265q-35 -37 -91 -37q-20 0 -38 6q-8 -65 31 -178q14 -18 30 -18q8 0 14 6q19 11 49 57q25 37 55 41q-6 -48 -35 -92.5t-69 -67.5q-65 13 -86.5 56.5t-32.5 84.5q-17 64 -14 136q4 129 78 208q21 32 61 32t72.5 -36.5t32.5 -78.5q0 -60 -57 -119zM193 400
q-6 14 -12 27q-9 16 -24 16q-33 0 -57 -48.5t-24 -99.5q6 -6 20 -6h23q66 41 74 111zM301 645q4 -26 -16 -39q-19 -9 -38 -19q-23 2 -41 25q-2 3 -25 42q5 11 10 23t17 14q75 -8 93 -46zM120 684q8 -17 8 -37q0 -48 -40 -62q-8 -3 -16 -3q-30 0 -49 36q-3 12 -3 23
q0 43 49 56q14 0 28 1q16 0 23 -14z" />
    <glyph glyph-name="igrave" unicode="&#xec;" horiz-adv-x="294" 
d="M269 33q-12 -31 -50 -31q-21 0 -57 11q-46 41 -58 71q-13 36 -13 91q0 19 7 110q6 11 13 23t21 11q20 -21 20 -60q0 -17 -5.5 -54.5t-5.5 -56.5q0 -23 6 -41q16 -43 56 -49l59 25q0 -2 4.5 -13t4.5 -17q0 -9 -8 -14zM189 499q-2 -9 -5 -19.5t-12 -12.5q-2 1 -88 84
q-25 23 -94 70q-2 7 -2 15q0 17 11 28.5t29 11.5q71 -57 89 -78q36 -50 72 -99z" />
    <glyph glyph-name="iacute" unicode="&#xed;" horiz-adv-x="294" 
d="M269 33q-12 -31 -50 -31q-21 0 -57 11q-46 41 -58 71q-13 36 -13 91q0 19 7 110q6 11 13 23t21 11q20 -21 20 -60q0 -17 -5.5 -54.5t-5.5 -56.5q0 -23 6 -41q16 -43 56 -49l59 25q0 -2 4.5 -13t4.5 -17q0 -9 -8 -14zM258 593q-69 -47 -94 -70q-86 -83 -87 -84
q-10 2 -12.5 12.5t-5.5 19.5q36 49 72 99q18 21 89 78q18 0 29.5 -11.5t11.5 -28.5q0 -8 -3 -15z" />
    <glyph glyph-name="icircumflex" unicode="&#xee;" horiz-adv-x="294" 
d="M269 33q-12 -31 -50 -31q-21 0 -57 11q-46 41 -58 71q-13 36 -13 91q0 19 7 110q6 11 13 23t21 11q20 -21 20 -60q0 -17 -5.5 -54.5t-5.5 -56.5q0 -23 6 -41q16 -43 56 -49l59 25q0 -2 4.5 -13t4.5 -17q0 -9 -8 -14zM275 544q6 -36 -18 -57q-31 24 -63 48q-37 28 -68 30
q-13 -8 -43.5 -39t-51.5 -40q-13 -5 -23 -5q-24 0 -23 26q2 41 55 81q20 21 40 41q17 16 28 20q17 7 50 -12q16 -4 59 -42q29 -25 58 -51z" />
    <glyph glyph-name="idieresis" unicode="&#xef;" horiz-adv-x="294" 
d="M269 33q-12 -31 -50 -31q-21 0 -57 11q-46 41 -58 71q-13 36 -13 91q0 19 7 110q6 11 13 23t21 11q20 -21 20 -60q0 -17 -5.5 -54.5t-5.5 -56.5q0 -23 6 -41q16 -43 56 -49l59 25q0 -2 4.5 -13t4.5 -17q0 -9 -8 -14zM279 525q4 -26 -16 -39q-19 -9 -38 -19q-23 2 -41 25
q-2 3 -25 42q5 11 10 23t17 14q75 -8 93 -46zM98 564q8 -17 8 -37q0 -48 -40 -62q-8 -3 -16 -3q-30 0 -49 36q-3 12 -3 23q0 43 49 56q14 0 28 1q16 0 23 -14z" />
    <glyph glyph-name="ntilde" unicode="&#xf1;" horiz-adv-x="340" 
d="M321 171q-2 -38 -12 -97q-10 -50 -19 -100q-3 -2 -14 -13.5t-17 -11.5t-12 7q-12 15 -12 35q0 14 9 45.5t9 47.5q6 68 6 90q0 103 -67 137q-26 5 -53 -17l-40 -38q-14 -111 -11 -227q-23 -24 -39 -24q-9 0 -17 6q-6 21 -6 51q0 20 4 62.5t4 63.5q0 17 -2 32q6 18 6 40
q0 15 -4 45.5t-4 47.5q0 13 2 25q9 13 23 13q28 0 39 -31q0 -16 5 -18q28 21 67 21q24 0 62 -9q81 -55 93 -183zM371 571q-48 -59 -64 -74q-5 -4 -39 -27t-37 -24q-10 -3 -17 -3q-15 0 -22 14l-14 25q-15 17 -47 44q-16 -3 -39 -18q-8 -6 -39 -71h-16q-9 0 -13 9
q10 62 29 91q12 20 36 42q31 27 48 23q27 -5 45 -32q11 -19 21 -39q18 -23 31 -23t36 25q19 21 60 81q4 1 8 1q15 0 24.5 -12.5t8.5 -31.5z" />
    <glyph glyph-name="ograve" unicode="&#xf2;" horiz-adv-x="304" 
d="M268 269q13 -35 13 -74q0 -90 -62 -165q-33 -19 -74 -31q-44 3 -80 36q-34 30 -48 75q-4 139 91 238q25 27 53 27q33 0 66 -37q26 -30 41 -69zM212 263q-10 6 -22 33q-10 24 -26 24q-5 0 -12 -2q-72 -91 -72 -181q0 -20 4 -40q1 -17 16.5 -30t32.5 -12q28 0 68 42
q19 32 19 76q0 17 -3 45q-4 37 -5 45zM236 471q-2 -9 -5 -19.5t-12 -12.5q-2 1 -88 84q-25 23 -94 70q-2 7 -2 15q0 17 11 28.5t29 11.5q71 -57 89 -78q36 -50 72 -99z" />
    <glyph glyph-name="oacute" unicode="&#xf3;" horiz-adv-x="304" 
d="M268 269q13 -35 13 -74q0 -90 -62 -165q-33 -19 -74 -31q-44 3 -80 36q-34 30 -48 75q-4 139 91 238q25 27 53 27q33 0 66 -37q26 -30 41 -69zM212 263q-10 6 -22 33q-10 24 -26 24q-5 0 -12 -2q-72 -91 -72 -181q0 -20 4 -40q1 -17 16.5 -30t32.5 -12q28 0 68 42
q19 32 19 76q0 17 -3 45q-4 37 -5 45zM291 553q-69 -47 -94 -70q-86 -83 -87 -84q-10 2 -12.5 12.5t-5.5 19.5q36 49 72 99q18 21 89 78q18 0 29.5 -11.5t11.5 -28.5q0 -8 -3 -15z" />
    <glyph glyph-name="ocircumflex" unicode="&#xf4;" horiz-adv-x="304" 
d="M268 269q13 -35 13 -74q0 -90 -62 -165q-33 -19 -74 -31q-44 3 -80 36q-34 30 -48 75q-4 139 91 238q25 27 53 27q33 0 66 -37q26 -30 41 -69zM212 263q-10 6 -22 33q-10 24 -26 24q-5 0 -12 -2q-72 -91 -72 -181q0 -20 4 -40q1 -17 16.5 -30t32.5 -12q28 0 68 42
q19 32 19 76q0 17 -3 45q-4 37 -5 45zM275 496q6 -36 -18 -57q-31 24 -63 48q-37 28 -68 30q-13 -8 -43.5 -39t-51.5 -40q-13 -5 -23 -5q-24 0 -23 26q2 41 55 81q20 21 40 41q17 16 28 20q17 7 50 -12q16 -4 59 -42q29 -25 58 -51z" />
    <glyph glyph-name="otilde" unicode="&#xf5;" horiz-adv-x="304" 
d="M268 269q13 -35 13 -74q0 -90 -62 -165q-33 -19 -74 -31q-44 3 -80 36q-34 30 -48 75q-4 139 91 238q25 27 53 27q33 0 66 -37q26 -30 41 -69zM212 263q-10 6 -22 33q-10 24 -26 24q-5 0 -12 -2q-72 -91 -72 -181q0 -20 4 -40q1 -17 16.5 -30t32.5 -12q28 0 68 42
q19 32 19 76q0 17 -3 45q-4 37 -5 45zM327 538q-48 -59 -64 -74q-5 -4 -39 -27t-37 -24q-10 -3 -17 -3q-15 0 -22 14l-14 25q-15 17 -47 44q-16 -3 -39 -18q-8 -6 -39 -71h-16q-9 0 -13 9q10 62 29 91q12 20 36 42q31 27 48 23q27 -5 45 -32q11 -19 21 -39q18 -23 31 -23
t36 25q19 21 60 81q4 1 8 1q15 0 24.5 -12.5t8.5 -31.5z" />
    <glyph glyph-name="odieresis" unicode="&#xf6;" horiz-adv-x="304" 
d="M268 269q13 -35 13 -74q0 -90 -62 -165q-33 -19 -74 -31q-44 3 -80 36q-34 30 -48 75q-4 139 91 238q25 27 53 27q33 0 66 -37q26 -30 41 -69zM212 263q-10 6 -22 33q-10 24 -26 24q-5 0 -12 -2q-72 -91 -72 -181q0 -20 4 -40q1 -17 16.5 -30t32.5 -12q28 0 68 42
q19 32 19 76q0 17 -3 45q-4 37 -5 45zM302 520q4 -26 -16 -39q-19 -9 -38 -19q-23 2 -41 25q-2 3 -25 42q5 11 10 23t17 14q75 -8 93 -46zM121 559q8 -17 8 -37q0 -48 -40 -62q-8 -3 -16 -3q-30 0 -49 36q-3 12 -3 23q0 43 49 56q14 0 28 1q16 0 23 -14z" />
    <glyph glyph-name="divide" unicode="&#xf7;" horiz-adv-x="302" 
d="M329 45q-14 -28 -49 -43q-134 19 -191 104q-10 -14 -2 -56q7 -34 -22 -48l-31 12q-4 40 -5 89v0q-1 93 -1 185q0 110 -12 181q9 68 28 68q11 0 27 -20q4 -13 5 -31v0q1 -7 1 -59q-1 -36 6 -58q20 14 41 28q25 16 43 16q17 0 33 -13q56 -46 56 -107q0 -33 -20 -64
q-10 -16 -62 -28q-45 -10 -45 -34q0 -12 9 -30q22 -43 111 -79q6 -3 14 -3v0q9 0 27 5t25 3q11 -2 14 -18zM187 278q4 56 -18 73q-27 -20 -55 -41q-33 -26 -33 -57q0 -9 2 -18q7 4 54 17q33 9 50 26z" />
    <glyph glyph-name="oslash" unicode="&#xf8;" horiz-adv-x="374" 
d="M335 171q9 -13 9 -27q0 -19 -19 -48q-22 -37 -26 -48q-49 -33 -66 -43q-40 -21 -74 -21q-22 0 -44 9q-50 28 -62 38q-31 25 -36 60q4 216 147 288q6 1 19.5 7t20.5 6q8 0 15 -6q11 6 22 34q10 23 26 23q6 0 13 -2l19 -37q-3 -12 -19 -31q62 -58 62 -146q0 -28 -7 -56z
M317 184q-44 -5 -44 28v0q0 -13 8 51q4 31 -13 43l-43 -117q-6 -8 -6 -23v-11q1 -7 1 -11q0 -26 -20 -34q-24 2 -42 25q-3 40 13 96q21 71 24 93q-31 -11 -58 -49q-20 -33 -40 -67q-25 -72 -25 -93q0 -24 12 -49q26 -20 86 -18q90 13 147 136z" />
    <glyph glyph-name="ugrave" unicode="&#xf9;" horiz-adv-x="377" 
d="M399 96q6 -31 -19 -49q-21 -14 -52 -14q-54 0 -76 39q-4 5 -7 23.5t-12 25.5q-10 -12 -23 -70q-10 -43 -44 -47q-41 1 -71 42q-9 13 -40 75q-1 29 -13 98q-11 64 -11 99q0 43 12 79q-7 40 12 55q11 2 23.5 -11t20.5 -14q-12 -67 -12 -132q0 -128 43 -223q3 -5 7.5 -10
t10.5 -3q70 124 70 284q0 30 -3 60q6 4 12 4q12 0 25 -16q9 -13 18 -25q9 -35 15 -147q5 -95 28 -142q10 2 36 15q23 11 34 11q10 0 16 -7zM246 502q-2 -9 -5 -19.5t-12 -12.5q-2 1 -88 84q-25 23 -94 70q-2 7 -2 15q0 17 11 28.5t29 11.5q71 -57 89 -78q36 -50 72 -99z" />
    <glyph glyph-name="uacute" unicode="&#xfa;" horiz-adv-x="377" 
d="M399 96q6 -31 -19 -49q-21 -14 -52 -14q-54 0 -76 39q-4 5 -7 23.5t-12 25.5q-10 -12 -23 -70q-10 -43 -44 -47q-41 1 -71 42q-9 13 -40 75q-1 29 -13 98q-11 64 -11 99q0 43 12 79q-7 40 12 55q11 2 23.5 -11t20.5 -14q-12 -67 -12 -132q0 -128 43 -223q3 -5 7.5 -10
t10.5 -3q70 124 70 284q0 30 -3 60q6 4 12 4q12 0 25 -16q9 -13 18 -25q9 -35 15 -147q5 -95 28 -142q10 2 36 15q23 11 34 11q10 0 16 -7zM292 614q-69 -47 -94 -70q-86 -83 -87 -84q-10 2 -12.5 12.5t-5.5 19.5q36 49 72 99q18 21 89 78q18 0 29.5 -11.5t11.5 -28.5
q0 -8 -3 -15z" />
    <glyph glyph-name="ucircumflex" unicode="&#xfb;" horiz-adv-x="377" 
d="M399 96q6 -31 -19 -49q-21 -14 -52 -14q-54 0 -76 39q-4 5 -7 23.5t-12 25.5q-10 -12 -23 -70q-10 -43 -44 -47q-41 1 -71 42q-9 13 -40 75q-1 29 -13 98q-11 64 -11 99q0 43 12 79q-7 40 12 55q11 2 23.5 -11t20.5 -14q-12 -67 -12 -132q0 -128 43 -223q3 -5 7.5 -10
t10.5 -3q70 124 70 284q0 30 -3 60q6 4 12 4q12 0 25 -16q9 -13 18 -25q9 -35 15 -147q5 -95 28 -142q10 2 36 15q23 11 34 11q10 0 16 -7zM312 574q6 -36 -18 -57q-31 24 -63 48q-37 28 -68 30q-13 -8 -43.5 -39t-51.5 -40q-13 -5 -23 -5q-24 0 -23 26q2 41 55 81
q20 21 40 41q17 16 28 20q17 7 50 -12q16 -4 59 -42q29 -25 58 -51z" />
    <glyph glyph-name="udieresis" unicode="&#xfc;" horiz-adv-x="377" 
d="M399 96q6 -31 -19 -49q-21 -14 -52 -14q-54 0 -76 39q-4 5 -7 23.5t-12 25.5q-10 -12 -23 -70q-10 -43 -44 -47q-41 1 -71 42q-9 13 -40 75q-1 29 -13 98q-11 64 -11 99q0 43 12 79q-7 40 12 55q11 2 23.5 -11t20.5 -14q-12 -67 -12 -132q0 -128 43 -223q3 -5 7.5 -10
t10.5 -3q70 124 70 284q0 30 -3 60q6 4 12 4q12 0 25 -16q9 -13 18 -25q9 -35 15 -147q5 -95 28 -142q10 2 36 15q23 11 34 11q10 0 16 -7zM319 575q4 -26 -16 -39q-19 -9 -38 -19q-23 2 -41 25q-2 3 -25 42q5 11 10 23t17 14q75 -8 93 -46zM138 614q8 -17 8 -37
q0 -48 -40 -62q-8 -3 -16 -3q-30 0 -49 36q-3 12 -3 23q0 43 49 56q14 0 28 1q16 0 23 -14z" />
    <glyph glyph-name="ydieresis" unicode="&#xff;" horiz-adv-x="775" 
d="M733 354q0 -154 -103.5 -263t-249.5 -109t-249.5 109t-103.5 263t103.5 263t249.5 109t249.5 -109t103.5 -263zM574 200l-88 53q-36 -53 -102 -53q-58 0 -92.5 41.5t-34.5 106.5q0 67 35 109t95 42q62 0 97 -42l77 51q-17 41 -70 65q-46 20 -93 20q-115 0 -184 -66
t-69 -179q0 -110 69 -176.5t184 -66.5q51 0 102 26.5t74 68.5z" />
    <glyph glyph-name="dotlessi" unicode="&#x131;" horiz-adv-x="299" 
d="M269 33q-12 -31 -50 -31q-21 0 -57 11q-46 41 -58 71q-13 36 -13 91q0 19 7 110q6 11 13 23t21 11q20 -21 20 -60q0 -17 -5.5 -54.5t-5.5 -56.5q0 -23 6 -41q16 -43 56 -49l59 25q0 -2 4.5 -13t4.5 -17q0 -9 -8 -14z" />
    <glyph glyph-name="OE" unicode="&#x152;" horiz-adv-x="940" 
d="M881 155q-10 -67 -66 -114q-60 -50 -142 -50q-101 1 -166 63q-15 14 -30 38q-59 -86 -160 -92v-167l-24 -33v199q-110 6 -187.5 99.5t-81.5 224.5h-190l8 23l182 -1q4 131 81.5 224.5t187.5 98.5v127l24 22v-149q44 -3 80 -20v16h476v-184q-3 -47 -57 -47t-56 47v125
h-209v-206h176v-86h-173v-83q0 -138 117 -138q90 0 117 106l93 -42v-1zM451 183h-1v34v6q-1 4 -1 6t1 6v7v241q-49 105 -133 114v-528q85 11 134 114zM292 69v528q-69 -5 -117.5 -77.5t-51.5 -174.5h64l-8 -23h-56q2 -102 51 -174.5t118 -78.5z" />
    <glyph glyph-name="oe" unicode="&#x153;" horiz-adv-x="818" 
d="M770 191h-280q7 -46 37 -85q34 -44 78 -43l129 2q40 1 40 -32t-41 -33h-154q-103 0 -159 73q-66 -71 -163 -71q-22 0 -47 5v-100l-22 11v96q-68 22 -111.5 81t-43.5 133q0 94 66 160t158 66q15 0 41 -4v126l22 -11l1 -120q70 -20 114 -81q59 62 145 62h190v-235zM668 238
v67q-5 70 -71 70q-22 0 -49 -8q-23 -7 -40 -50q-15 -35 -19 -79h179zM368 228q0 83 -48 128v-80l-22 11v85q-19 11 -41 11q-46 0 -78.5 -45.5t-32.5 -109.5q0 -73 42 -122v101l22 -11v-109q21 -15 47 -15q46 0 78.5 45.5t32.5 110.5z" />
    <glyph glyph-name="Ydieresis" unicode="&#x178;" horiz-adv-x="775" 
d="M733 354q0 -154 -103.5 -263t-249.5 -109t-249.5 109t-103.5 263t103.5 263t249.5 109t249.5 -109t103.5 -263zM574 200l-88 53q-36 -53 -102 -53q-58 0 -92.5 41.5t-34.5 106.5q0 67 35 109t95 42q62 0 97 -42l77 51q-17 41 -70 65q-46 20 -93 20q-115 0 -184 -66
t-69 -179q0 -110 69 -176.5t184 -66.5q51 0 102 26.5t74 68.5z" />
    <glyph glyph-name="florin" unicode="&#x192;" horiz-adv-x="567" 
d="M530 441l-19 -117l-139 33q8 -34 8 -70q0 -94 -49 -178q-10 -16 -18 -26q13 -14 74 -46q75 -19 72 -38q-2 -14 -32 -14q-21 0 -47 6q-17 5 -33 12q-39 16 -71 42q-46 -38 -104 -54q-28 -6 -49 -6q-29 0 -31 13q-3 19 72 38q21 11 41 21.5t34 25.5q-7 8 -18 27
q-49 85 -49 180q0 35 7 67l-139 -33l-18 116q-1 10 -1 22q0 119 108 145l119 28q11 12 30 7q14 3 24 -6l121 -28q108 -25 108 -144q0 -13 -1 -23zM474 454q9 104 -80 125l-7 -39l-110 27l-113 -27l-6 38q-81 -18 -81 -107q0 -10 1 -18l5 -36l174 41q11 4 20 5l191 -46z
M305 257q0 65 -29 98q-30 -35 -30 -98q0 -51 21 -97q3 -7 9 -20q29 58 29 117z" />
    <glyph glyph-name="circumflex" unicode="&#x2c6;" horiz-adv-x="357" 
d="M330 513q6 -36 -18 -57q-31 24 -63 48q-37 28 -68 30q-13 -8 -43.5 -39t-51.5 -40q-13 -5 -23 -5q-24 0 -23 26q2 41 55 81q20 21 40 41q17 16 28 20q17 7 50 -12q16 -4 59 -42q29 -25 58 -51z" />
    <glyph glyph-name="breve" unicode="&#x2d8;" horiz-adv-x="1150" 
 />
    <glyph glyph-name="dotaccent" unicode="&#x2d9;" horiz-adv-x="294" 
d="M257 605q-5 -2 -9 -2v0q-5 0 -21 9q-11 7 -19 -1q5 -7 10 -14.5t2 -15.5q-24 -8 -51 -8q-75 0 -120 51q-16 17 -16 34q0 14 10 26q25 8 47 8q29 0 44 -13q9 2 18 2q20 0 48 -12q22 -10 45 -21z" />
    <glyph glyph-name="ring" unicode="&#x2da;" horiz-adv-x="392" 
d="M359 533h-24q0 17 -6 20l-10 -41q-9 -23 -28 -33q-39 -21 -82 -21q-44 0 -83 21q-21 15 -42 61q-2 9 -2 18q0 49 39.5 83t89.5 34q19 0 38 -6q84 -31 110 -80q17 -31 0 -56zM329 553v24h-7q-40 52 -93 52q-12 0 -23 -3q-30 -7 -62 -55q-6 -8 -6 -17q0 -22 19.5 -31
t40.5 -9q46 0 118 50q8 -8 6 -11h7z" />
    <glyph glyph-name="tilde" unicode="&#x2dc;" horiz-adv-x="394" 
d="M378 590q-48 -59 -64 -74q-5 -4 -39 -27t-37 -24q-10 -3 -17 -3q-15 0 -22 14l-14 25q-15 17 -47 44q-16 -3 -39 -18q-8 -6 -39 -71h-16q-9 0 -13 9q10 62 29 91q12 20 36 42q31 27 48 23q27 -5 45 -32q11 -19 21 -39q18 -23 31 -23t36 25q19 21 60 81q4 1 8 1
q15 0 24.5 -12.5t8.5 -31.5z" />
    <glyph glyph-name="summation" unicode="&#x3a3;" horiz-adv-x="453" 
d="M416 346q20 -48 20 -101q0 -128 -100 -236q-10 -6 -24 -6q-9 0 -54 12l-38 44q-23 -40 -73 -75q-10 -2 -20 -2q-57 0 -84 52q-28 92 -28 188q0 104 34 186q6 2 11 2q16 0 38 -33q-32 -58 -32 -143q0 -82 32 -200q64 17 98 134q-16 34 0 56q6 4 13 4q26 0 42 -35
q5 -36 9 -71q7 -41 27 -63q53 25 80 82q25 52 25 118q0 84 -49 131q-18 16 -49 35q-40 25 -49 32q4 13 24 13q16 0 31 -7q30 -14 64 -54q26 -31 52 -63z" />
    <glyph glyph-name="Omega" unicode="&#x3a9;" horiz-adv-x="1293" 
d="M1223 125q-3 -10 -15 -25q-25 0 -30 -10q-110 -10 -299 -70q-12 3 -24 25q26 20 72 33q70 19 77 22q112 26 186 26q18 0 33 -1zM496 628q2 -5 2 -10q0 -19 -32 -30q-50 13 -69 49q0 7 -1.5 18.5t-1.5 16.5q0 24 23 35q12 6 25 6q17 0 24 -11v-15q-3 2 -7 2q-11 0 -27 -27
q1 -20 19 -34h45zM1272 801q-35 21 -79 21q-35 0 -91 -15q-70 -18 -88 -20q-12 -12 -44.5 -17.5t-45.5 -17.5q-8 -103 -34 -304q9 -9 22 -9v0q6 0 27 5q16 3 25 0q5 1 106 13q67 9 103 31q5 2 13 17q6 11 17 8q13 -18 0 -40q-9 -15 -39 -21.5t-40 -18.5q-26 2 -77 -7
q-54 -10 -78 -10q-16 0 -29 3q-1 -1 -38 -7q-22 -4 -23 -24q-3 -50 -23 -169q-18 -107 -18 -165q0 -17 1 -34q0 -8 -8 -12t-16 -7q-15 11 -15 31q0 6 2.5 21t2.5 22q-2 6 -2 14q0 10 5.5 31t6.5 30q9 82 30 244l-10 9q-1 0 -28 1q-16 1 -27 -10q-13 -1 -39 -13.5t-38 -12.5
q-16 0 -28 15q-16 -2 -56 -19q-36 -15 -56 -15q-26 0 -47 20q-14 -4 -29.5 -8t-24.5 -12q2 -15 -6.5 -21.5t-23.5 -3.5q-6 25 -36 25q-8 0 -39 -5q-27 -13 -27 -57q0 -15 3 -40q4 -29 4 -37q-5 -23 -5 -54v0q0 -5 1 -46q1 -28 0 -45q-3 -25 -11 -45q-6 -1 -11 -1
q-20 0 -20 25q0 6 1.5 19.5t1.5 19.5q0 7 -1 12q5 61 5 119q0 59 -5 115q-60 6 -80 -36q-12 -24 -15 -93.5t-15 -94.5q1 -3 1 -6q0 -15 -21 -24q-22 8 -22 25q0 9 8 27.5t9 26.5q-2 26 9 73t11 72q-5 10 -12 10q-4 0 -13.5 -5.5t-14.5 -4.5q-36 -3 -113 -29
q-70 -22 -111 -21q-1 3 -8.5 9t-7.5 11q0 3 1 5q55 21 138 43q70 18 141 37q18 113 15 249q-11 102 -10 114q21 -2 34 -20q10 -46 10 -110q0 -28 -3 -101q-3 -63 -1 -98q-1 -8 -1 -16q1 -9 11 -9l33 4q20 2 31 12q6 38 6 83q0 41 -9 134q-8 87 -7 136l10 10q22 -17 25 -40
q15 -130 15 -215q0 -52 -5 -99l10 -9q2 1 43 7q27 3 36 17q1 13 1 27q0 26 -4 69q-5 56 -6 69l9 10q31 -27 35 -76q0 -47 1 -94q8 -10 23 -10q6 0 20 3t21 2q11 25 20 64q8 33 15 66q3 13 20 35q5 2 8 2q6 0 11 -10t11 -13q-15 -40 -35 -124q15 -14 47.5 -7.5t47.5 -1.5
q14 4 17 26q3 27 8 33q0 1 13 47q9 29 9 48t-8 35q16 9 36 9q33 0 69 -24q18 -12 29 -35l16 -40l9 10q2 46 18 153q15 96 13 156l9 9l30 -34q64 20 194 54q39 0 78 1q45 -3 66 -30q-2 -6 2 -13t4 -9q0 -5 -6 -9zM750 71q-30 -31 -64 -31q-13 0 -25 5q-8 2 -16 10t-15 16
q-19 -16 -23 -16q-8 0 -15 7.5t-7 16.5v0q0 -9 5 28q3 18 -9 27q-41 5 -55 36q0 13 -5 15q-12 1 -31 -5q-22 -6 -28 -6q-17 0 -25 21q9 12 57 15q38 3 38 32q0 6 -1 13q12 17 45 24q38 2 70 -40q0 3 -1 -11q0 -6 5 -9q8 4 15 23t16 19q6 0 14 -6q7 -12 7 -26
q0 -15 -11.5 -44t-11.5 -43q0 -6 1 -12q10 -2 25.5 9t22.5 11q9 0 17 -10q15 -9 15 -23q0 -7 -5 -23t-5 -23zM855 483q-5 -12 -16 -35q9 1 10 9v0q-1 10 6 26zM805 523q-8 12 -15 23q-11 12 -25 12q-9 -41 -34 -119h19q40 20 55 84zM596 239q1 15 -7 15l-28 -15
q-2 -14 10 -65q14 7 18 29q6 35 7 36z" />
    <glyph glyph-name="pi" unicode="&#x3c0;" horiz-adv-x="517" 
d="M470 80l-26 -80h-174q-91 0 -154 69q-73 81 -81 231q-2 46 0 73q10 120 74 206q68 90 161 90h200v-161l-76 1q0 37 -16 64q-21 34 -61 34q-35 0 -81.5 -27t-59.5 -208h158l-34 -72h-123q0 -83 34 -149q36 -71 88 -71h171z" />
    <glyph glyph-name="endash" unicode="&#x2013;" horiz-adv-x="472" 
d="M439 270q1 5 1 -23q0 -14 -6 -20q-22 2 -44 2q-61 0 -176 -25q-118 -25 -179 -26q0 8 -9 22.5t-9 21.5q0 9 12 17q20 -5 42 -5q34 0 109 20q70 18 113 16q31 13 76 13q46 0 70 -13z" />
    <glyph glyph-name="emdash" unicode="&#x2014;" horiz-adv-x="633" 
d="M613 270q1 5 2 -23q0 -14 -9 -20q-30 2 -62 2q-85 0 -246 -25q-164 -25 -249 -26q-1 8 -13.5 22.5t-12.5 21.5q0 9 17 17q29 -5 59 -5q48 0 152 20q98 18 157 16q44 13 107 13q64 0 98 -13z" />
    <glyph glyph-name="quoteleft" unicode="&#x2018;" horiz-adv-x="258" 
d="M206 435q-19 -25 -56 -21q-17 17 -34 35.5t-23 34.5q-23 37 -23 81t23 82q27 29 55 29v0q26 0 40 -24t3 -56q-7 -20 -30 -20v0q-32 0 -39 -14q3 -31 33 -67q26 -30 51 -60z" />
    <glyph glyph-name="quoteright" unicode="&#x2019;" horiz-adv-x="258" 
d="M206 682q2 -20 -17 -21q-22 -1 -26 -14q24 -38 24 -82t-24 -81q-5 -16 -56 -70q-37 -4 -56 21q25 30 51 60q30 36 33 67q-7 14 -27 14v0q-21 0 -24 1q-13 4 -19 19q-4 12 -4 22q0 26 32 47q43 30 49 38h39q23 0 25 -21z" />
    <glyph glyph-name="quotesinglbase" unicode="&#x201a;" horiz-adv-x="671" 
d="M620 135q0 -58 -42 -99.5t-101 -41.5l-288 -2q-59 0 -101 41.5t-42 100.5v526q0 58 42 99t101 41l288 2q59 0 101 -41.5t42 -100.5v-525zM553 204v1q-3 9 -36 71q-26 46 -21 82q10 76 10 103q0 37 -11 56q-18 31 -47 61v94q-1 15 -3 27q-6 30 -21 38q-24 14 -45 14
l-143 1q-16 5 -37 -14.5t-23 -65.5v-175h-26v-25h26v-367h-61v-32h390v33q8 -2 17 -2v0q60 0 31 100zM468 510q0 -15 -20 -27v68q20 -22 20 -41zM409 537h-196v172h196v-172zM525 183q2 -8 2 -15v0q0 -42 -80 -25v300q4 -2 22 13l3 -7l-6 -89q-4 -55 19 -95q34 -57 40 -81
v-1zM418 328q0 -73 -40 -112q-34 -32 -80 -32h-87v289h87q46 0 80 -32q40 -40 40 -113zM374 601q0 23 -35 31l-23 5v27q31 0 38 -4l15 17q-21 11 -53 11v11h-16l1 -13q-56 -4 -56 -35q0 -21 37 -31l18 -5v-28q-15 1 -42 7l-17 -16q21 -13 59 -13v-13h16v12q58 4 58 38v-1z
M351 327q0 77 -60 77h-27v-153l26 -1q60 -2 60 77h1zM301 639l-1 1q-17 4 -16 11q0 8 17 12v-24zM337 599q0 -9 -21 -13v26h5q16 -4 16 -13z" />
    <glyph glyph-name="quotedblleft" unicode="&#x201c;" horiz-adv-x="357" 
d="M349 432q-19 -25 -56 -21q-17 17 -34 35.5t-23 34.5q-23 38 -23 81q0 44 23 82q24 23 51 23v0q28 0 43 -21.5t4 -52.5q-7 -20 -30 -20v0q-32 0 -39 -14q3 -31 33 -67q26 -30 51 -60zM192 435q-19 -25 -56 -21q-17 17 -34 35.5t-23 34.5q-23 37 -23 81t23 82q15 36 44 36
v0q26 0 45.5 -28t8.5 -59q-7 -20 -30 -20v0q-32 0 -39 -14q3 -31 33 -67q26 -30 51 -60z" />
    <glyph glyph-name="quotedblright" unicode="&#x201d;" horiz-adv-x="357" 
d="M315 488q-5 -15 -56 -69q-37 -4 -57 20q26 30 51 60q31 37 34 68q-7 14 -27 14h-6.5h-6.5q-23 0 -30 20q-3 10 -3 20v0q0 45 40 62q41 18 61 -32q24 -38 24 -81q0 -44 -24 -82zM158 485q-5 -15 -56 -69q-37 -4 -57 21q26 29 51 59q31 37 34 68q-7 14 -27 14h-6.5h-6.5
q-23 0 -30 20q-4 12 -4 23v0q0 37 35 48t67 -21q24 -37 24 -81t-24 -82z" />
    <glyph glyph-name="quotedblbase" unicode="&#x201e;" horiz-adv-x="671" 
d="M620 135q0 -58 -42 -99.5t-101 -41.5l-288 -2q-59 0 -101 41.5t-42 100.5v526q0 58 42 99t101 41l288 2q59 0 101 -41.5t42 -100.5v-525zM553 204v1q-3 9 -36 71q-26 46 -21 82q10 76 10 103q0 37 -11 56q-18 31 -47 61v94q-1 15 -3 27q-6 30 -21 38q-24 14 -45 14
l-143 1q-16 5 -37 -14.5t-23 -65.5v-175h-26v-25h26v-367h-61v-32h390v33q8 -2 17 -2v0q60 0 31 100zM468 510q0 -15 -20 -27v68q20 -22 20 -41zM409 537h-196v172h196v-172zM525 183q2 -8 2 -15v0q0 -42 -80 -25v300q4 -2 22 13l3 -7l-6 -89q-4 -55 19 -95q34 -57 40 -81
v-1zM418 328q0 -73 -40 -112q-34 -32 -80 -32h-87v289h87q46 0 80 -32q40 -40 40 -113zM374 601q0 23 -35 31l-23 5v27q31 0 38 -4l15 17q-21 11 -53 11v11h-16l1 -13q-56 -4 -56 -35q0 -21 37 -31l18 -5v-28q-15 1 -42 7l-17 -16q21 -13 59 -13v-13h16v12q58 4 58 38v-1z
M351 327q0 77 -60 77h-27v-153l26 -1q60 -2 60 77h1zM301 639l-1 1q-17 4 -16 11q0 8 17 12v-24zM337 599q0 -9 -21 -13v26h5q16 -4 16 -13z" />
    <glyph glyph-name="dagger" unicode="&#x2020;" horiz-adv-x="629" 
d="M616 391h-1q6 -31 6 -64q0 -96 -43 -190q-135 -129 -272 -129q-24 0 -49 4q-16 -3 -31 -3q-81 0 -185 99q-37 54 -37 142q0 84 32 144q58 109 141 177q101 82 210 74q84 -34 146 -100q68 -71 83 -154zM558 289q1 15 1 29q0 77 -37 141t-103 99q-13 0 -36.5 10t-36.5 10
q-12 0 -23 -6l-91 -33q-162 -137 -162 -280q0 -39 13 -79q18 -56 72 -79q40 -16 114 -17q60 -1 120 -1q170 79 168 207zM444 442q5 -11 5 -23q0 -30 -29 -48q-23 -14 -48 -1q-13 6 -17 22l-6 26q5 19 23 33.5t37 14.5q23 0 34 -24h1zM301 390q-23 -31 -54 -31
q-17 0 -33.5 15.5t-16.5 35.5q0 7 3 14q11 32 58 32q49 -34 43 -66zM444 251q-55 -71 -115 -96q-11 -5 -23 -5q-14 0 -34 8q-28 10 -34 11q-19 20 -38 39q-20 24 -19 48l23 43q9 3 16 3q17 0 25 -34q9 -37 32 -42q15 -11 29 -11q23 0 59.5 37.5t55.5 40.5q0 -1 16 -15
q9 -9 9 -17q0 -5 -2 -10z" />
    <glyph glyph-name="daggerdbl" unicode="&#x2021;" horiz-adv-x="671" 
d="M620 135q0 -58 -42 -99.5t-101 -41.5l-288 -2q-59 0 -101 41.5t-42 100.5v526q0 58 42 99t101 41l288 2q59 0 101 -41.5t42 -100.5v-525zM553 204v1q-3 9 -36 71q-26 46 -21 82q10 76 10 103q0 37 -11 56q-18 31 -47 61v94q-1 15 -3 27q-6 30 -21 38q-24 14 -45 14
l-143 1q-16 5 -37 -14.5t-23 -65.5v-175h-26v-25h26v-367h-61v-32h390v33q8 -2 17 -2v0q60 0 31 100zM468 510q0 -15 -20 -27v68q20 -22 20 -41zM409 537h-196v172h196v-172zM525 183q2 -8 2 -15v0q0 -42 -80 -25v300q4 -2 22 13l3 -7l-6 -89q-4 -55 19 -95q34 -57 40 -81
v-1zM418 328q0 -73 -40 -112q-34 -32 -80 -32h-87v289h87q46 0 80 -32q40 -40 40 -113zM374 601q0 23 -35 31l-23 5v27q31 0 38 -4l15 17q-21 11 -53 11v11h-16l1 -13q-56 -4 -56 -35q0 -21 37 -31l18 -5v-28q-15 1 -42 7l-17 -16q21 -13 59 -13v-13h16v12q58 4 58 38v-1z
M351 327q0 77 -60 77h-27v-153l26 -1q60 -2 60 77h1zM301 639l-1 1q-17 4 -16 11q0 8 17 12v-24zM337 599q0 -9 -21 -13v26h5q16 -4 16 -13z" />
    <glyph glyph-name="bullet" unicode="&#x2022;" horiz-adv-x="629" 
d="M616 391h-1q6 -31 6 -64q0 -96 -43 -190q-135 -129 -272 -129q-24 0 -49 4q-16 -3 -31 -3q-81 0 -185 99q-37 54 -37 142q0 84 32 144q58 109 141 177q101 82 210 74q84 -34 146 -100q68 -71 83 -154zM558 289q1 15 1 29q0 77 -37 141t-103 99q-13 0 -36.5 10t-36.5 10
q-12 0 -23 -6l-91 -33q-162 -137 -162 -280q0 -39 13 -79q18 -56 72 -79q40 -16 114 -17q60 -1 120 -1q170 79 168 207zM444 442q5 -11 5 -23q0 -30 -29 -48q-23 -14 -48 -1q-13 6 -17 22l-6 26q5 19 23 33.5t37 14.5q23 0 34 -24h1zM301 390q-23 -31 -54 -31
q-17 0 -33.5 15.5t-16.5 35.5q0 7 3 14q11 32 58 32q49 -34 43 -66zM444 251q-55 -71 -115 -96q-11 -5 -23 -5q-14 0 -34 8q-28 10 -34 11q-19 20 -38 39q-20 24 -19 48l23 43q9 3 16 3q17 0 25 -34q9 -37 32 -42q15 -11 29 -11q23 0 59.5 37.5t55.5 40.5q0 -1 16 -15
q9 -9 9 -17q0 -5 -2 -10z" />
    <glyph glyph-name="ellipsis" unicode="&#x2026;" horiz-adv-x="684" 
d="M190 68q0 -30 -20.5 -51.5t-49.5 -21.5q-30 0 -50.5 21.5t-20.5 51.5t20.5 51.5t50.5 21.5q29 0 49.5 -21.5t20.5 -51.5zM612 67q0 -30 -21 -51t-50 -21t-49.5 21t-20.5 51q0 31 20.5 52t49.5 21t50 -21t21 -52zM409 66q0 -30 -20.5 -51.5t-49.5 -21.5q-30 0 -50.5 21.5
t-20.5 51.5t20.5 51.5t50.5 21.5q29 0 49.5 -21.5t20.5 -51.5z" />
    <glyph glyph-name="perthousand" unicode="&#x2030;" horiz-adv-x="671" 
d="M620 135q0 -58 -42 -99.5t-101 -41.5l-288 -2q-59 0 -101 41.5t-42 100.5v526q0 58 42 99t101 41l288 2q59 0 101 -41.5t42 -100.5v-525zM553 204v1q-3 9 -36 71q-26 46 -21 82q10 76 10 103q0 37 -11 56q-18 31 -47 61v94q-1 15 -3 27q-6 30 -21 38q-24 14 -45 14
l-143 1q-16 5 -37 -14.5t-23 -65.5v-175h-26v-25h26v-367h-61v-32h390v33q8 -2 17 -2v0q60 0 31 100zM468 510q0 -15 -20 -27v68q20 -22 20 -41zM409 537h-196v172h196v-172zM525 183q2 -8 2 -15v0q0 -42 -80 -25v300q4 -2 22 13l3 -7l-6 -89q-4 -55 19 -95q34 -57 40 -81
v-1zM418 328q0 -73 -40 -112q-34 -32 -80 -32h-87v289h87q46 0 80 -32q40 -40 40 -113zM374 601q0 23 -35 31l-23 5v27q31 0 38 -4l15 17q-21 11 -53 11v11h-16l1 -13q-56 -4 -56 -35q0 -21 37 -31l18 -5v-28q-15 1 -42 7l-17 -16q21 -13 59 -13v-13h16v12q58 4 58 38v-1z
M351 327q0 77 -60 77h-27v-153l26 -1q60 -2 60 77h1zM301 639l-1 1q-17 4 -16 11q0 8 17 12v-24zM337 599q0 -9 -21 -13v26h5q16 -4 16 -13z" />
    <glyph glyph-name="guilsinglleft" unicode="&#x2039;" horiz-adv-x="408" 
d="M358 89l-135 -134l-21 22l40 39l-197 194l198 193q12 12 27 12v0q22 0 32 -21q11 -22 -8 -41l-144 -143l144 -143l43 43z" />
    <glyph glyph-name="guilsinglright" unicode="&#x203a;" horiz-adv-x="408" 
d="M358 210l-196 -194l40 -39l-22 -22l-135 134l22 21l42 -43l145 143l-145 143q-12 11 -12 26v0q0 23 22 34q23 11 43 -9z" />
    <glyph glyph-name="trademark" unicode="&#x2122;" horiz-adv-x="629" 
d="M597 424q32 -61 32 -145q0 -88 -37 -142q-104 -99 -187 -99q-14 0 -29 2q-25 -4 -49 -4q-138 0 -274 129q-43 94 -43 190q0 33 6 64q16 83 83 155q63 65 147 100q108 8 209 -74q84 -67 141 -176h1zM549 208q13 41 13 81q0 143 -162 279l-91 33q-11 6 -23 6q-13 0 -36 -10
t-36 -10q-66 -36 -103.5 -100t-37.5 -141q0 -155 170 -234h120q74 1 114 17q54 23 72 79zM435 453q2 -7 2 -13q0 -30 -36 -48q-8 -2 -16 -2q-29 0 -51 29q-6 33 43 67q45 -2 57 -33h1zM287 448q-4 -13 -8 -27t-16 -21q-24 -13 -48 0q-29 20 -29 50q0 11 5 22q11 23 35 23
q19 0 37 -14t23 -33h1zM455 285q1 -23 -19 -47l-38 -40q-5 -1 -33 -11q-20 -7 -34 -7q-12 0 -24 5q-61 26 -114 95q-2 5 -2 10q0 9 9 18l16 16q19 -4 57 -43q35 -36 58 -36q14 0 29 11q23 5 31 40.5t24 35.5q7 0 17 -4z" />
    <glyph glyph-name="partialdiff" unicode="&#x2202;" horiz-adv-x="473" 
d="M473 132q1 -6 1 -11q0 -28 -36 -35q-31 -5 -63 -9l-73 11l-66 -50q-40 -26 -74 -26q-22 0 -44 9q-112 90 -112 201q0 47 39 85q12 12 79 58q25 17 59 17q43 0 88 -23l31 18q25 -5 41 -33l26 -47q7 -43 7 -62q0 -33 -13 -60l-25 -25q20 -20 60 -20q7 0 38 2q24 2 37 0z
M333 285q-6 3 -7.5 14t-11.5 11q6 -17 6 -35q0 -36 -25 -45q-4 -7 -10 -7q-5 0 -26 19q-6 6 -6 11q0 6 9 16t9 16q-10 1 -11.5 -10.5t-6.5 -13.5q-6 -22 -6 -42q0 -44 30 -57l38 46q22 27 22 52q0 12 -4 25zM228 126q-34 35 -34 93q0 45 22 103q-54 2 -123 -49
q-31 -28 -31 -81q0 -23 7 -48q24 -32 37 -44q25 -23 49 -23q1 1 45 15q26 9 28 34z" />
    <glyph glyph-name="Delta" unicode="&#x2206;" horiz-adv-x="958" 
d="M879 302v1q40 -26 40 -49v0q0 -15 -18 -15q-20 0 -50 19l-173 112q-1 1 -3.5 2.5t-3.5 1.5q-19 -115 -96 -161q-23 -39 -57 -69q31 -22 57 -22q31 0 48 28t45 28q18 0 35 -10l38 -25l-89 -138l-71 46l14 21q-38 10 -108 40l-5 3l-4 -3q-28 -21 -109 -40l14 -21l-70 -46
l-90 138l38 25q17 10 35 10q28 0 45 -28t48 -28q26 0 57 22q-50 44 -73 105q-49 52 -64 133q-8 -4 -23 -12l-172 -112q-30 -20 -51 -20q-18 0 -18 15q0 23 40 49l190 123q17 11 29 17q1 35 25 110h-25v83h165v-45q-4 -59 -59 -59q-60 3 -63 -69q49 19 93 19q22 0 42 -5
q19 4 41 4q48 0 101 -21v206q0 63 26 63t26 -63v-232q5 -3 13 -8zM610 395q-16 2 -23 2q5 -8 11 -24q8 14 12 22zM512 302q-4 24 -18 44q-6 9 -12 14q-7 -5 -12 -14q-13 -21 -17 -41q18 -6 37 -6q10 0 22 3zM377 397q-7 0 -21 -2q3 -9 10 -22q3 8 11 24zM495 193h-5
q-6 0 -22 2q4 -7 14 -19q5 5 13 17z" />
    <glyph glyph-name="product" unicode="&#x220f;" horiz-adv-x="542" 
d="M533 636h-52v-432q0 -76 -69 -142t-155 -66q-93 1 -158.5 70.5t-65.5 168.5q0 100 65.5 170t158.5 70q67 0 122 -39v197l-250 1v35h404v-33zM370 234q0 69 -32.5 118t-78.5 49t-78.5 -49t-32.5 -119q0 -68 32.5 -117t78.5 -49t78.5 49t32.5 118z" />
    <glyph glyph-name="fraction" unicode="&#x2215;" horiz-adv-x="528" 
d="M481 617l-366 -603q-17 -28 -46 -28q-19 0 -33.5 13t-14.5 32q0 15 9 30l369 603q16 26 42 26v0q27 0 41 -22q15 -24 -1 -51z" />
    <glyph glyph-name="periodcentered" unicode="&#x2219;" horiz-adv-x="671" 
d="M620 135q0 -58 -42 -99.5t-101 -41.5l-288 -2q-59 0 -101 41.5t-42 100.5v526q0 58 42 99t101 41l288 2q59 0 101 -41.5t42 -100.5v-525zM553 204v1q-3 9 -36 71q-26 46 -21 82q10 76 10 103q0 37 -11 56q-18 31 -47 61v94q-1 15 -3 27q-6 30 -21 38q-24 14 -45 14
l-143 1q-16 5 -37 -14.5t-23 -65.5v-175h-26v-25h26v-367h-61v-32h390v33q8 -2 17 -2v0q60 0 31 100zM468 510q0 -15 -20 -27v68q20 -22 20 -41zM409 537h-196v172h196v-172zM525 183q2 -8 2 -15v0q0 -42 -80 -25v300q4 -2 22 13l3 -7l-6 -89q-4 -55 19 -95q34 -57 40 -81
v-1zM418 328q0 -73 -40 -112q-34 -32 -80 -32h-87v289h87q46 0 80 -32q40 -40 40 -113zM374 601q0 23 -35 31l-23 5v27q31 0 38 -4l15 17q-21 11 -53 11v11h-16l1 -13q-56 -4 -56 -35q0 -21 37 -31l18 -5v-28q-15 1 -42 7l-17 -16q21 -13 59 -13v-13h16v12q58 4 58 38v-1z
M351 327q0 77 -60 77h-27v-153l26 -1q60 -2 60 77h1zM301 639l-1 1q-17 4 -16 11q0 8 17 12v-24zM337 599q0 -9 -21 -13v26h5q16 -4 16 -13z" />
    <glyph glyph-name="radical" unicode="&#x221a;" horiz-adv-x="972" 
d="M901 158l-60 -10l-26 -5q-37 -91 -110 -146q-76 -56 -167 -56q-127 0 -216.5 102.5t-89.5 247.5q0 19 1 28l-197 114l12 21l188 -109q0 5 2 15l-183 106l97 168q15 24 41 24q16 0 33 -10q31 -18 31 -45q0 -14 -7 -26l-66 -114l71 -40q34 97 111 157t172 60
q133 0 224 -111l71 13q49 5 56 -35q7 -42 -40 -53l-37 -7q32 -75 32 -156q0 -14 -2 -44q43 3 51 -43zM753 291q0 75 -35 140l-153 -27l35 -199l148 26q5 32 5 60zM700 123l-266 -47l-8 46q-1 7 -1 13q0 37 38 46l36 6l-50 287l200 35q-51 37 -111 37q-69 0 -124.5 -47.5
t-78.5 -122.5l130 -75l-31 -54l-111 64v-16l106 -61l-12 -21l-94 54q8 -98 69.5 -165t145.5 -67q98 0 162 88z" />
    <glyph glyph-name="infinity" unicode="&#x221e;" horiz-adv-x="767" 
d="M666 443q47 -47 47 -118q0 -77 -53 -138q-59 -67 -140 -67q-60 0 -102 41q-31 31 -43 79l-47 -55l26 -25l-17 -19l-26 25q-39 -43 -108 -46q-71 -3 -116 42q-48 48 -48 121q0 76 52 135q59 67 141 67q60 0 102 -41q31 -31 43 -79l47 55l-26 26l17 19l26 -26q39 43 108 47
q71 4 117 -42v-1zM585 417q-42 0 -84 -38l26 -26l-17 -19l-27 26q-46 -52 -46 -106q0 -27 17 -45t43 -18q54 0 103 55q46 51 46 105q0 28 -17.5 47t-43.5 19zM296 398h-1q-16 15 -41 15q-53 0 -102 -56q-46 -52 -46 -106q0 -28 16.5 -46.5t42.5 -18.5q43 0 86 39l-26 26
l17 19l27 -27q46 51 46 105q0 32 -19 50z" />
    <glyph glyph-name="integral" unicode="&#x222b;" horiz-adv-x="761" 
d="M726 355q0 -153 -104.5 -261.5t-252.5 -108.5t-252 108.5t-104 261.5t104.5 261.5t252.5 108.5t252 -108.5t104 -261.5zM697 355q0 141 -96 240.5t-231 99.5t-231 -99.5t-96 -240.5t96 -240.5t230 -99.5q135 0 231 99.5t96 240.5h1zM557 451q0 -33 -29 -66.5t-66 -46.5
l-137 -1v-120h20q41 0 44 -31v-18h-207v49l62 -1v313q0 28 37 30h151q43 0 84 -34.5t41 -73.5zM476 451v1q0 29 -26 54.5t-53 25.5h-72v-167h72q30 0 54.5 27t24.5 59z" />
    <glyph glyph-name="approxequal" unicode="&#x2248;" horiz-adv-x="699" 
d="M588 917q-8 -20 -27 -58l-21 -21q-2 -8 -8 -21q-7 30 56 100zM633 897q-16 -40 -48 -97q-49 -88 -52 -95q33 132 100 192zM496 730q-5 16 -12 49q-6 56 -20 167q26 -76 30 -106q2 -19 2 -110zM462 770q-9 6 -11 17q-1 7 -2 21.5t-2 22.5l-10 62q-5 37 -3 63q4 -2 6 -6
q1 -8 4 -23q6 -24 13 -49q6 -28 5 -50v-58zM678 634q-15 -5 -31 -5q-22 0 -65 16l-28 8q-17 4 -27 13q39 -2 78 -5q43 -3 73 -27zM470 702q-7 6 -22.5 17t-23.5 17l-1 -7h-9q-34 27 -103 76q-18 7 -52 23q-17 9 -18 27q29 -9 46 -17l4 4l6 -7l7 1q30 -12 84 -44
q19 -15 43 -43q19 -24 39 -47zM628 447q-5 2 -11 -1q-24 34 -49 88q-22 45 -43 91q8 -10 29 -27t29 -28q4 -13 11 -37q6 -11 16 -33q5 -18 18 -53zM493 684q15 -14 15 -32t-14 -34t-34 -22q-24 -7 -37 -7q-15 0 -58 28q-7 1 -22 4q-24 11 -48 21q-29 11 -52 12l-4 4
q-45 -4 -45 -70q4 -4 79 -23l-2 -5q-9 0 -35 1q-22 2 -35 1l-5 -14q-4 -3 -7 -3q-4 0 -8.5 10t-9.5 10t-17 -4.5t-17 -4.5t-7 3q12 26 47 22q1 30 3 60q6 34 40 39q13 2 66 -11q50 -12 65 -19q3 -1 38 -25q27 -18 38 -17q20 1 60 19q8 29 6 57zM219 639l-3 -6l-3 1l3 7z
M215 611q-2 6 -2 -9q-4 7 -4 28q3 -3 6 -19zM199 351q-4 0 -9 -3q-4 5 -13 14q6 3 14 12q0 -11 8 -23zM173 366l-4 -11l-3 2l3 9h4zM149 377q-1 -3 -7 -3q0 2 3 4q3 1 4 -1zM178 344l-4 -2l-6 9l4 3zM499 196q-9 -93 -87 -150q-72 -52 -170 -52q-127 0 -198 85l2 13l-7 -3
q-4 20 -10 26q-9 10 -19 19q-2 11 -7 21t-5 21q0 7 1 17q-10 6 -5 28l10 -1l-8 8l10 9l-12 9q15 3 20 -16l4 -32l7 13l-2 -18q-2 1 -6 1q4 -22 9 -45t21 -38q4 -17 17 -20l-11 15l11 16q27 0 27 -9q0 -3 -6 -7l6 -4l9 4q-10 16 -10 20q0 6 9 9l1 4l-17 1q12 12 22 16l3 7
l-13 -1l9 9q-5 28 1 37l2 -19q1 4 11 19q0 -20 -11 -25l12 -9l3 3q-6 -10 -14 -32l12 -6l16 14q13 -3 18 -16.5t14 -16.5q13 9 18 19l3 -1q0 15 -6 20l4 5q-8 7 -17 7q-10 0 -11 -11q-16 12 -27 14l10 4q0 17 3 22q-3 1 -18 1l18 28q4 -5 10.5 -5.5t9.5 -6.5l2 18l6 9l-3 7
l-8 -7l-4 9l-1 -7l-15 5l6 25l8 -21l5 10l5 -2l-4 12l20 1l5 12l-8 5l12 13l-12 19l5 1l5 15q17 1 20.5 12t6.5 23q-5 5 -9 -1l5 8h-6l-8 8l12 2l6 11q-12 0 -14 -6l-3 11l-26 5l-2 -14l-13 14l-1 -10l-13 -2l8 -13l-5 -4l-11 23l-8 -2l-9 3q-2 -5 -31 -17l7 -5l-10 -16
q10 -5 14 6l-4 -23l-3 10q-5 -7 -5 -15q-18 14 -18 26q-10 -7 -19 -25q-15 -27 -16 -29q2 -20 -8 -32l-1 13l-8 -14l3 -13l-11 -25q4 15 -5 26l-6 -26q-2 8 -2 15q0 11 5.5 30t5.5 30q43 62 54 74q41 45 77 40l7 7q-7 75 -7 97q41 -9 52 -3q5 -1 11 -1v0q10 0 37 8
q23 7 39 4q8 -26 14 -84q5 -5 14 -6l14 -2q85 -24 136.5 -99t43.5 -163zM136 400q0 -38 -7 -52q-1 1 -3 2.5t-3 1.5q-7 -3 -13 -1q3 -6 7 -19q-4 6 -14 6q-5 17 14 24q-1 11 -4 30l18 -21q3 14 -6 17h4q3 -1 4 -1q1 5 3 13zM108 361h-4v12h4v-12zM152 316h-1q0 6 -16 11
q5 3 12.5 -0.5t4.5 -10.5zM173 285l-6 -1q2 5 -4 11q1 -1 3.5 -1t1.5 -2q4 -4 5 -7zM76 330h-3l-3 6l3 2zM87 308q-11 2 -11 14q2 0 5 1t4 1q0 -2 2 -8q2 -5 0 -8zM53 337l-7 -3v4l6 3zM154 235q-4 0 -22 -6q8 8 8 13q6 -2 14 -7zM78 286q-13 7 -7 17q3 -7 7 -17zM58 286
q0 -7 -1.5 -9t-8.5 -9q3 -4 7 -10h-16v15q9 1 13.5 6.5t5.5 6.5zM128 154h-4l-3 9l4 1zM58 125q-6 -6 -11 -4zM253 481q-8 8 -9 8v-6q-2 -2 9 -2zM165 503h-3l-6 -14l4 -1zM173 489q-7 -7 -2 -12q0 9 2 12zM278 454q-10 -8 -35 -21q-1 7 -8 8v0q-6 0 -16 2q6 14 4 18l2 3
q13 -4 11 -5q-8 6 -1 13q-2 1 13 1q-8 3 -13 3q-9 0 -23 -19q-10 10 -13 9q4 -2 8 -7q-3 -1 -22 -1h4v-14q-3 7 -13 5l-14 7q2 -2 4 -7t3 -6q-8 -8 -8 -6q0 6 -2 6q-4 -5 -4 -15q2 1 20 1q0 1 -3 -14q5 5 7 4q4 -3 7 -6q0 5 2 7q4 -6 14 -1q3 -2 22 -5q4 -2 0 -3
q9 -9 14 -11q-5 12 -3 15q31 8 32 9q12 7 11 30zM263 386q-4 0 -4 -10q1 2 4 10zM268 368q-12 0 -20 10q8 4 8 5q-8 8 -8 1q-13 -7 -11 -18q8 6 18 -4l3 -6q2 -2 6 5q2 3 4 7zM290 307v9q-3 0 -3 -4t3 -5zM281 294v9h-4v-9h4zM243 310q-3 3 -3 14q-10 -2 -15 1.5t-8 3.5
q0 -2 -2 -5.5t-1 -6.5q9 -3 18 2q9 -9 11 -9zM256 287q-4 3 -13 -3q-2 0 13 3zM208 328q0 9 -9 9q0 -4 -5 -9h14zM126 364v12h-5v-12h5zM85 356q0 12 -4 13q-5 -7 4 -13zM203 220v4l-8 3l-1 -4zM233 196q-11 15 -10 20q-4 -3 -14 -3h-4q-4 0 0 -9q-3 -9 -3 -11q4 5 13 12
q2 -4 2 -17zM268 138h-3q-3 1 -3 -3t-1 -5q7 2 7 8zM196 195q-2 6 -7 14q7 7 7 9q-12 -7 -14 -22q13 0 14 -1zM295 106q-4 4 -7 -4q1 1 7 4zM211 184q-3 2 -13 -1q13 0 13 1zM189 184v4h-12v-4h12zM159 193q0 2 -7 9q1 1 2 3t2 3q2 1 0 1q-4 5 -9 6q4 -13 0 -22h12zM231 129
q-6 6 -12 6l-6 -6q-1 0 -1 1q-5 -11 -3 -16q4 -2 6 -2q5 0 9 6q6 10 7 11zM179 108q-3 3 -3 7q-2 0 0 -3q1 -4 3 -4zM147 120l-1 3l-6 -3v-3zM101 96h-4l-3 -8l4 -2zM129 35v10l-6 -2l1 -3q3 -5 5 -5zM77 76q0 13 -5 23q-3 -5 -3 -8q0 -4 3.5 -8t4.5 -7zM210 454l-4 -11
l-3 2l3 9h4z" />
    <glyph glyph-name="notequal" unicode="&#x2260;" horiz-adv-x="351" 
d="M321 201q-24 1 -54 27q-35 30 -50 35q-19 7 -41 7q-31 0 -51 -14q-17 -6 -30 -26l-19 -34q-3 -16 -3 -31q0 -61 59 -129q35 -2 69 39q43 53 53 59q3 -13 3 -27q0 -78 -65 -120q-11 -2 -21 -2q-51 0 -89 38q-55 81 -55 178q0 42 43 67q37 19 73 37q12 4 24 4q23 0 52 -15
q44 -24 47 -25l13 12q-11 46 -21 93q-18 52 -59 67q-7 2 -13 2q-15 0 -39 -23t-41 -22q-2 31 23 55.5t55 24.5q26 0 64 -19q46 -45 62 -121q10 -48 11 -137z" />
    <glyph glyph-name="lessequal" unicode="&#x2264;" horiz-adv-x="588" 
d="M509 113h-41v56h-62l-113 -106l-25 24l47 45l-39 37h-133v-56q0 -37 -46 -37q-47 0 -47 37v127h150l-119 112l47 43l188 176q15 14 32 14v0q28 0 40 -24q13 -26 -10 -47l-172 -162l119 -112h184v-127z" />
    <glyph glyph-name="greaterequal" unicode="&#x2265;" horiz-adv-x="588" 
d="M509 113h-41v56h-199l-39 -37l48 -45l-26 -24l-109 102v-52q0 -37 -46 -37q-47 0 -47 37v127h170l119 112l-171 163q-14 13 -14 30v0q0 25 26 37q27 12 50 -10l234 -220l-119 -112h164v-127z" />
    <glyph glyph-name="lozenge" unicode="&#x25ca;" horiz-adv-x="531" 
d="M476 262h-41v56h-300v-183q0 -37 -46 -37q-47 0 -47 37v292h393v55h41v-220z" />
    <glyph glyph-name="apple" unicode="&#xf000;" horiz-adv-x="1150" 
d="M1108 538l-6 -37q-56 -18 -96 -18q-22 0 -38 6q6 26 31 37q15 7 51.5 12t51.5 12zM1108 324q5 -25 -16 -34q-19 -5 -39 -10q-4 -1 -7 -1q-6 0 -29 20q2 28 33 34q26 4 52 9zM1102 29q-1 0 -50 -1q-29 -1 -41 19q0 37 34 29q45 -10 57 2q7 -9 7 -24q0 -16 -7 -25zM968 66
q-22 -36 -43 -71q-29 -40 -68 -40q-32 -5 -55 18q1 7 1 12q0 18 -22 28q-25 10 -28 22q-15 10 -49.5 15.5t-48.5 15.5q-29 2 -64.5 -33t-55.5 -35q-16 0 -33 13q-8 11 -6 38.5t-1 34.5l7 6l-7 7q7 61 7 119q0 57 -7 119q5 25 31 25q10 0 18 -7q19 -86 19 -139q0 -34 -6 -63
q7 -7 5 -12l-5 -6q10 -6 2.5 -21.5t9.5 -21.5q26 15 63 15q15 0 43 -2.5t41 -2.5q14 0 25 2q-8 24 -8 56v0q0 14 5 66q3 39 0 62q-5 33 -22 56q-4 7 -4 13q0 14 18 21q14 4 30.5 8t32.5 4q84 0 156 -89q40 -41 40 -111q0 -48 -21 -122zM422 -20q-8 -7 -23 -7h-26l-13 13
q0 40 -6 125q-6 82 -6 125q0 54 7 99q-10 11 -39 26q-25 13 -35 30q-1 10 -7 32t-6 34q0 14 7 25q4 15 21 26l28 18q18 -9 36 -17q22 -12 19 -32q-3 -5 -7 -5q1 0 -17 10l-7 7q-24 -11 -24 -46q0 -15 6 -28l25 -24q3 3 18 29q10 19 24 20q23 -26 18 -62q-2 -5 -13.5 -16.5
t-11.5 -19.5q0 -6 7 -13q5 -87 9 -174q5 -96 16 -175zM275 22q-9 -13 -30 -13q-17 0 -32 8q-18 21 -6 30l-25 257q-10 7 -22 7q-8 0 -24.5 -4t-25.5 -4q-7 0 -13 1q-18 -15 -10 -47q8 -36 -3 -51q7 -35 7 -96v-93q-10 -8 -31 -8q-23 0 -31 13q-2 8 -2 17v0q0 4 7 48
q5 28 -5 46v240q-3 85 -18 355q7 12 18 12q19 0 37 -25q-3 -29 -3 -61q0 -51 11 -150.5t10 -150.5q14 -6 34 -6t34 6q2 -5 18 -5l12 18q-23 187 -18 356q18 -4 37 -9t25 -22q0 -15 -7 -18q7 -5 7 -10q0 -3 -4 -10t-4 -12q0 -3 1 -5q-1 -44 10 -121q11 -81 11 -117
q0 -23 -3 -45q1 0 22 -10q13 -7 9 -19q-24 -11 -24 -37v0q0 -8 6 -42q6 -26 0 -39q13 -26 12 -91t13 -93zM913 78q20 42 20 89t-20 88q-42 82 -111 87q-8 -64 -8 -126t8 -114l8 -54q5 -31 16 -50q27 -1 52 29q17 25 35 51z" />
    <glyph glyph-name="fi" unicode="&#xf001;" horiz-adv-x="697" 
d="M595 541q0 -27 -19 -46t-46 -19t-46 19t-19 47t19 47t46 19t46 -19t19 -47v-1zM661 0h-262v37h81v308l-55 -1q-40 -1 -40 42t40 43h159v-392h77v-37zM378 230q0 -58 -67 -63h-63v-310h90v-38h-272v38h85v310h-129v26q5 66 72 66h57v212q7 56 66 59h121q23 0 36.5 -14
t13.5 -33q0 -20 -13.5 -34t-36.5 -14h-90v-176h130v-29z" />
    <glyph glyph-name="fl" unicode="&#xf002;" horiz-adv-x="390" 
d="M416 94q-6 -18 -27 -27l-34 -15q-30 -3 -56 15t-37 46l-62 -78q-42 -44 -91 -39q-87 78 -87 187q0 29 7 59q13 53 45 95q36 49 84 64q17 3 33 3q75 0 127 -70q4 -16 4 -35v0q0 -22 -8.5 -67t-7.5 -67q0 -37 18 -64q9 -4 17 -4v0q8 0 37 13q21 10 38 -3l-7 -6zM269 327
q-7 16 -27.5 21.5t-39.5 9.5q-59 -19 -80 -49q-44 -63 -44 -139q0 -67 38 -118q41 12 71 59q22 41 45 82q12 21 12 85q5 14 9.5 28t15.5 21z" />
  </font>
</defs>
</svg>
